solid OpenSCAD_Model
  facet normal 0 0 -1
    outer loop
      vertex 1.2 0 0
      vertex 1.2 1.2 0
      vertex 33.333333333333336 0.6 0
    endloop
  endfacet
  facet normal 0 0 -1
    outer loop
      vertex 33.333333333333336 0.6 0
      vertex 1.2 1.2 0
      vertex 9.2 1.2 0
    endloop
  endfacet
  facet normal 0 1 0
    outer loop
      vertex 1.2 1.2 20
      vertex 9.2 1.2 1.2
      vertex 1.2 1.2 1.2
    endloop
  endfacet
  facet normal 0 1 0
    outer loop
      vertex 1.2 1.2 20
      vertex 33.333333333333336 1.2 0
      vertex 9.2 1.2 1.2
    endloop
  endfacet
  facet normal 0 1 0
    outer loop
      vertex 33.333333333333336 1.2 0
      vertex 9.2 1.2 0
      vertex 9.2 1.2 1.2
    endloop
  endfacet
  facet normal 0 0 -1
    outer loop
      vertex 33.333333333333336 0.6 0
      vertex 9.2 1.2 0
      vertex 33.333333333333336 1.2 0
    endloop
  endfacet
  facet normal 0 0 1
    outer loop
      vertex 1.2 0 20
      vertex 1.2 1.2 20
      vertex 1.1784 1.2 20
    endloop
  endfacet
  facet normal 0 0 1
    outer loop
      vertex 1.2 0 20
      vertex 33.333333333333336 1.2 20
      vertex 1.2 1.2 20
    endloop
  endfacet
  facet normal 0 1 0
    outer loop
      vertex 1.2 1.2 20
      vertex 33.333333333333336 1.2 20
      vertex 33.333333333333336 1.2 0
    endloop
  endfacet
  facet normal 0 -1 0
    outer loop
      vertex 1.2 0 0
      vertex 66.66666666666667 0 20
      vertex 1.2 0 20
    endloop
  endfacet
  facet normal 0 0 1
    outer loop
      vertex 1.2 0 20
      vertex 34.53333333333334 1.2 20
      vertex 33.333333333333336 1.2 20
    endloop
  endfacet
  facet normal 0 0 -1
    outer loop
      vertex 1.2 0 0
      vertex 33.333333333333336 0.6 0
      vertex 66.66666666666667 0 0
    endloop
  endfacet
  facet normal 0 0 -1
    outer loop
      vertex 33.333333333333336 0.6 0
      vertex 34.53333333333334 0.6216 0
      vertex 66.66666666666667 0 0
    endloop
  endfacet
  facet normal 0 0 -1
    outer loop
      vertex 34.53333333333334 0.6216 0
      vertex 34.53333333333334 1.2 0
      vertex 66.66666666666667 1.2 0
    endloop
  endfacet
  facet normal 0 -1 0
    outer loop
      vertex 1.2 0 0
      vertex 66.66666666666667 0 0
      vertex 66.66666666666667 0 20
    endloop
  endfacet
  facet normal 0 1 0
    outer loop
      vertex 34.53333333333334 1.2 0
      vertex 34.53333333333334 1.2 20
      vertex 66.66666666666667 1.2 0
    endloop
  endfacet
  facet normal 0 0 -1
    outer loop
      vertex 34.53333333333334 0.6216 0
      vertex 66.66666666666667 1.2 0
      vertex 66.66666666666667 0 0
    endloop
  endfacet
  facet normal 1 0 0
    outer loop
      vertex 66.66666666666667 0 0
      vertex 66.66666666666667 1.2 0
      vertex 66.66666666666667 0 20
    endloop
  endfacet
  facet normal 0 0 1
    outer loop
      vertex 1.2 0 20
      vertex 66.66666666666667 0 20
      vertex 34.53333333333334 1.2 20
    endloop
  endfacet
  facet normal 0 1 0
    outer loop
      vertex 66.66666666666667 1.2 0
      vertex 34.53333333333334 1.2 20
      vertex 66.66666666666667 1.2 20
    endloop
  endfacet
  facet normal 1 0 0
    outer loop
      vertex 66.66666666666667 1.2 0
      vertex 66.66666666666667 1.2 20
      vertex 66.66666666666667 0 20
    endloop
  endfacet
  facet normal 0 0 1
    outer loop
      vertex 34.53333333333334 1.2 20
      vertex 66.66666666666667 0 20
      vertex 66.66666666666667 1.2 20
    endloop
  endfacet
  facet normal 0 0 -1
    outer loop
      vertex 1.2 33.333333333333336 0
      vertex 1.2 34.53333333333334 0
      vertex 33.333333333333336 33.333333333333336 0
    endloop
  endfacet
  facet normal 0 1 0
    outer loop
      vertex 1.2 34.53333333333334 0
      vertex 1.2 34.53333333333334 20
      vertex 33.333333333333336 34.53333333333334 0
    endloop
  endfacet
  facet normal 0 0 -1
    outer loop
      vertex 1.2 34.53333333333334 0
      vertex 33.333333333333336 34.53333333333334 0
      vertex 33.333333333333336 33.333333333333336 0
    endloop
  endfacet
  facet normal 0 -1 0
    outer loop
      vertex 1.2 33.333333333333336 0
      vertex 33.333333333333336 33.333333333333336 0
      vertex 33.333333333333336 33.333333333333336 20
    endloop
  endfacet
  facet normal 0 -1 0
    outer loop
      vertex 1.2 33.333333333333336 0
      vertex 33.333333333333336 33.333333333333336 20
      vertex 1.2 33.333333333333336 20
    endloop
  endfacet
  facet normal 0 0 1
    outer loop
      vertex 0.6 33.333333333333336 20
      vertex 1.2 34.53333333333334 20
      vertex 0.5783999999999999 34.53333333333334 20
    endloop
  endfacet
  facet normal 0 0 1
    outer loop
      vertex 0.6 33.333333333333336 20
      vertex 33.333333333333336 34.53333333333334 20
      vertex 1.2 34.53333333333334 20
    endloop
  endfacet
  facet normal 0 0 1
    outer loop
      vertex 0.6 33.333333333333336 20
      vertex 1.2 33.333333333333336 20
      vertex 34.53333333333334 34.53333333333334 20
    endloop
  endfacet
  facet normal 0 1 0
    outer loop
      vertex 1.2 34.53333333333334 20
      vertex 33.333333333333336 34.53333333333334 20
      vertex 33.333333333333336 34.53333333333334 0
    endloop
  endfacet
  facet normal 0 0 1
    outer loop
      vertex 0.6 33.333333333333336 20
      vertex 34.53333333333334 34.53333333333334 20
      vertex 33.333333333333336 34.53333333333334 20
    endloop
  endfacet
  facet normal 0 0 1
    outer loop
      vertex 1.2 33.333333333333336 20
      vertex 33.333333333333336 33.333333333333336 20
      vertex 34.53333333333334 34.53333333333334 20
    endloop
  endfacet
  facet normal 0 0 -1
    outer loop
      vertex 34.53333333333334 33.333333333333336 0
      vertex 34.53333333333334 34.53333333333334 0
      vertex 66.66666666666667 33.333333333333336 0
    endloop
  endfacet
  facet normal 0 0 -1
    outer loop
      vertex 66.66666666666667 33.333333333333336 0
      vertex 34.53333333333334 34.53333333333334 0
      vertex 42.53333333333334 34.53333333333334 0
    endloop
  endfacet
  facet normal 0 1 0
    outer loop
      vertex 34.53333333333334 34.53333333333334 20
      vertex 42.53333333333334 34.53333333333334 1.2
      vertex 34.53333333333334 34.53333333333334 1.2
    endloop
  endfacet
  facet normal 0 1 0
    outer loop
      vertex 66.66666666666667 34.53333333333334 0
      vertex 42.53333333333334 34.53333333333334 1.2
      vertex 34.53333333333334 34.53333333333334 20
    endloop
  endfacet
  facet normal 0 1 0
    outer loop
      vertex 66.66666666666667 34.53333333333334 0
      vertex 42.53333333333334 34.53333333333334 0
      vertex 42.53333333333334 34.53333333333334 1.2
    endloop
  endfacet
  facet normal 0 0 -1
    outer loop
      vertex 66.66666666666667 33.333333333333336 0
      vertex 42.53333333333334 34.53333333333334 0
      vertex 66.66666666666667 34.53333333333334 0
    endloop
  endfacet
  facet normal 0 -1 0
    outer loop
      vertex 34.53333333333334 33.333333333333336 0
      vertex 66.66666666666667 33.333333333333336 0
      vertex 66.66666666666667 33.333333333333336 20
    endloop
  endfacet
  facet normal 1 0 0
    outer loop
      vertex 66.66666666666667 33.333333333333336 0
      vertex 66.66666666666667 34.53333333333334 0
      vertex 66.66666666666667 33.333333333333336 20
    endloop
  endfacet
  facet normal 0 -1 0
    outer loop
      vertex 34.53333333333334 33.333333333333336 0
      vertex 66.66666666666667 33.333333333333336 20
      vertex 34.53333333333334 33.333333333333336 20
    endloop
  endfacet
  facet normal 0 0 1
    outer loop
      vertex 33.333333333333336 33.333333333333336 20
      vertex 34.53333333333334 33.333333333333336 20
      vertex 34.53333333333334 34.53333333333334 20
    endloop
  endfacet
  facet normal 0 0 1
    outer loop
      vertex 34.53333333333334 33.333333333333336 20
      vertex 66.66666666666667 33.333333333333336 20
      vertex 34.53333333333334 34.53333333333334 20
    endloop
  endfacet
  facet normal 0 1 0
    outer loop
      vertex 66.66666666666667 34.53333333333334 0
      vertex 34.53333333333334 34.53333333333334 20
      vertex 66.66666666666667 34.53333333333334 20
    endloop
  endfacet
  facet normal 1 0 0
    outer loop
      vertex 66.66666666666667 34.53333333333334 0
      vertex 66.66666666666667 34.53333333333334 20
      vertex 66.66666666666667 33.333333333333336 20
    endloop
  endfacet
  facet normal 0 0 1
    outer loop
      vertex 34.53333333333334 34.53333333333334 20
      vertex 66.66666666666667 33.333333333333336 20
      vertex 66.66666666666667 34.53333333333334 20
    endloop
  endfacet
  facet normal 0 0 -1
    outer loop
      vertex 0 0 0
      vertex 1.2 1.2 0
      vertex 1.2 0 0
    endloop
  endfacet
  facet normal 0 0 -1
    outer loop
      vertex 0 0 0
      vertex 1.2 9.2 0
      vertex 1.2 1.2 0
    endloop
  endfacet
  facet normal 0 0 -1
    outer loop
      vertex 0 0 0
      vertex 1.2 11.766666666666666 0
      vertex 1.2 9.2 0
    endloop
  endfacet
  facet normal 0 0 -1
    outer loop
      vertex 0 0 0
      vertex 0 11.766666666666666 0
      vertex 1.2 11.766666666666666 0
    endloop
  endfacet
  facet normal -1 0 0
    outer loop
      vertex 0 0 0
      vertex 0 11.766666666666666 2.6
      vertex 0 11.766666666666666 0
    endloop
  endfacet
  facet normal 1 0 0
    outer loop
      vertex 1.2 11.766666666666666 2.6
      vertex 1.2 1.2 1.2
      vertex 1.2 9.2 1.2
    endloop
  endfacet
  facet normal 1 0 0
    outer loop
      vertex 1.2 11.766666666666666 0
      vertex 1.2 9.2 1.2
      vertex 1.2 9.2 0
    endloop
  endfacet
  facet normal 1 0 0
    outer loop
      vertex 1.2 11.766666666666666 0
      vertex 1.2 11.766666666666666 2.6
      vertex 1.2 9.2 1.2
    endloop
  endfacet
  facet normal 0 -1 0
    outer loop
      vertex 0 0 0
      vertex 1.2 0 0
      vertex 1.2 0 20
    endloop
  endfacet
  facet normal 1 0 0
    outer loop
      vertex 1.2 11.766666666666666 2.6
      vertex 1.2 1.2 20
      vertex 1.2 1.2 1.2
    endloop
  endfacet
  facet normal 1 0 0
    outer loop
      vertex 1.2 11.766666666666666 2.6
      vertex 1.2 22.766666666666666 2.6
      vertex 1.2 1.2 20
    endloop
  endfacet
  facet normal 0 0 -1
    outer loop
      vertex 0 22.766666666666666 0
      vertex 1.2 33.333333333333336 0
      vertex 1.2 22.766666666666666 0
    endloop
  endfacet
  facet normal 1 0 0
    outer loop
      vertex 1.2 22.766666666666666 0
      vertex 1.2 33.333333333333336 0
      vertex 1.2 22.766666666666666 2.6
    endloop
  endfacet
  facet normal 0 0 -1
    outer loop
      vertex 0 22.766666666666666 0
      vertex 1.2 34.53333333333334 0
      vertex 1.2 33.333333333333336 0
    endloop
  endfacet
  facet normal -1 0 0
    outer loop
      vertex 0 22.766666666666666 0
      vertex 0 22.766666666666666 2.6
      vertex 0 45.10000000000001 0
    endloop
  endfacet
  facet normal 1 0 0
    outer loop
      vertex 1.2 22.766666666666666 2.6
      vertex 1.2 33.333333333333336 0
      vertex 1.2 1.2 20
    endloop
  endfacet
  facet normal -1 0 0
    outer loop
      vertex 0 0 0
      vertex 0 66.66666666666667 20
      vertex 0 11.766666666666666 2.6
    endloop
  endfacet
  facet normal 0 -1 0
    outer loop
      vertex 0 0 0
      vertex 1.2 0 20
      vertex 0 0 20
    endloop
  endfacet
  facet normal 0 0 1
    outer loop
      vertex 0 0 20
      vertex 1.2 0 20
      vertex 1.1784 1.2 20
    endloop
  endfacet
  facet normal 0 0 1
    outer loop
      vertex 0 0 20
      vertex 1.1784 1.2 20
      vertex 0.6 33.333333333333336 20
    endloop
  endfacet
  facet normal 0 0 1
    outer loop
      vertex 1.2 1.2 20
      vertex 1.2 33.333333333333336 20
      vertex 1.1784 1.2 20
    endloop
  endfacet
  facet normal -1 0 0
    outer loop
      vertex 0 0 0
      vertex 0 0 20
      vertex 0 66.66666666666667 20
    endloop
  endfacet
  facet normal 1 0 0
    outer loop
      vertex 1.2 1.2 20
      vertex 1.2 33.333333333333336 0
      vertex 1.2 33.333333333333336 20
    endloop
  endfacet
  facet normal 0 0 1
    outer loop
      vertex 0 0 20
      vertex 0.6 33.333333333333336 20
      vertex 0.5783999999999999 34.53333333333334 20
    endloop
  endfacet
  facet normal 0 0 1
    outer loop
      vertex 1.1784 1.2 20
      vertex 1.2 33.333333333333336 20
      vertex 0.6 33.333333333333336 20
    endloop
  endfacet
  facet normal 0 0 -1
    outer loop
      vertex 0 22.766666666666666 0
      vertex 1.2 45.10000000000001 0
      vertex 1.2 34.53333333333334 0
    endloop
  endfacet
  facet normal 0 0 -1
    outer loop
      vertex 0 22.766666666666666 0
      vertex 0 45.10000000000001 0
      vertex 1.2 45.10000000000001 0
    endloop
  endfacet
  facet normal 1 0 0
    outer loop
      vertex 1.2 34.53333333333334 0
      vertex 1.2 45.10000000000001 0
      vertex 1.2 45.10000000000001 2.6
    endloop
  endfacet
  facet normal -1 0 0
    outer loop
      vertex 0 22.766666666666666 2.6
      vertex 0 45.10000000000001 2.6
      vertex 0 45.10000000000001 0
    endloop
  endfacet
  facet normal -1 0 0
    outer loop
      vertex 0 11.766666666666666 2.6
      vertex 0 66.66666666666667 20
      vertex 0 22.766666666666666 2.6
    endloop
  endfacet
  facet normal 1 0 0
    outer loop
      vertex 1.2 34.53333333333334 0
      vertex 1.2 45.10000000000001 2.6
      vertex 1.2 34.53333333333334 20
    endloop
  endfacet
  facet normal -1 0 0
    outer loop
      vertex 0 22.766666666666666 2.6
      vertex 0 66.66666666666667 20
      vertex 0 45.10000000000001 2.6
    endloop
  endfacet
  facet normal 1 0 0
    outer loop
      vertex 1.2 45.10000000000001 2.6
      vertex 1.2 56.10000000000001 2.6
      vertex 1.2 34.53333333333334 20
    endloop
  endfacet
  facet normal 0 0 -1
    outer loop
      vertex 0 56.10000000000001 0
      vertex 1.2 66.66666666666667 0
      vertex 1.2 56.10000000000001 0
    endloop
  endfacet
  facet normal -1 0 0
    outer loop
      vertex 0 56.10000000000001 0
      vertex 0 56.10000000000001 2.6
      vertex 0 66.66666666666667 0
    endloop
  endfacet
  facet normal 1 0 0
    outer loop
      vertex 1.2 56.10000000000001 0
      vertex 1.2 66.66666666666667 0
      vertex 1.2 56.10000000000001 2.6
    endloop
  endfacet
  facet normal 0 0 -1
    outer loop
      vertex 0 56.10000000000001 0
      vertex 0 66.66666666666667 0
      vertex 1.2 66.66666666666667 0
    endloop
  endfacet
  facet normal 1 0 0
    outer loop
      vertex 1.2 56.10000000000001 2.6
      vertex 1.2 66.66666666666667 0
      vertex 1.2 34.53333333333334 20
    endloop
  endfacet
  facet normal -1 0 0
    outer loop
      vertex 0 45.10000000000001 2.6
      vertex 0 66.66666666666667 20
      vertex 0 56.10000000000001 2.6
    endloop
  endfacet
  facet normal 0 1 0
    outer loop
      vertex 0 66.66666666666667 0
      vertex 0 66.66666666666667 20
      vertex 1.2 66.66666666666667 0
    endloop
  endfacet
  facet normal -1 0 0
    outer loop
      vertex 0 56.10000000000001 2.6
      vertex 0 66.66666666666667 20
      vertex 0 66.66666666666667 0
    endloop
  endfacet
  facet normal 0 0 1
    outer loop
      vertex 0 0 20
      vertex 0.5783999999999999 34.53333333333334 20
      vertex 0 66.66666666666667 20
    endloop
  endfacet
  facet normal 0 0 1
    outer loop
      vertex 0.5783999999999999 34.53333333333334 20
      vertex 1.2 34.53333333333334 20
      vertex 1.2 66.66666666666667 20
    endloop
  endfacet
  facet normal 1 0 0
    outer loop
      vertex 1.2 66.66666666666667 0
      vertex 1.2 66.66666666666667 20
      vertex 1.2 34.53333333333334 20
    endloop
  endfacet
  facet normal 0 1 0
    outer loop
      vertex 1.2 66.66666666666667 0
      vertex 0 66.66666666666667 20
      vertex 1.2 66.66666666666667 20
    endloop
  endfacet
  facet normal 0 0 1
    outer loop
      vertex 0.5783999999999999 34.53333333333334 20
      vertex 1.2 66.66666666666667 20
      vertex 0 66.66666666666667 20
    endloop
  endfacet
  facet normal 0 0 -1
    outer loop
      vertex 33.333333333333336 0.6 0
      vertex 33.333333333333336 1.2 0
      vertex 34.53333333333334 0.6216 0
    endloop
  endfacet
  facet normal 0 0 -1
    outer loop
      vertex 33.333333333333336 1.2 0
      vertex 34.53333333333334 1.2 0
      vertex 34.53333333333334 0.6216 0
    endloop
  endfacet
  facet normal 0 0 -1
    outer loop
      vertex 33.333333333333336 1.2 0
      vertex 34.53333333333334 11.766666666666666 0
      vertex 34.53333333333334 1.2 0
    endloop
  endfacet
  facet normal 0 0 -1
    outer loop
      vertex 33.333333333333336 1.2 0
      vertex 33.333333333333336 11.766666666666666 0
      vertex 34.53333333333334 11.766666666666666 0
    endloop
  endfacet
  facet normal -1 0 0
    outer loop
      vertex 33.333333333333336 1.2 0
      vertex 33.333333333333336 11.766666666666666 2.6
      vertex 33.333333333333336 11.766666666666666 0
    endloop
  endfacet
  facet normal 1 0 0
    outer loop
      vertex 34.53333333333334 1.2 0
      vertex 34.53333333333334 11.766666666666666 0
      vertex 34.53333333333334 11.766666666666666 2.6
    endloop
  endfacet
  facet normal 1 0 0
    outer loop
      vertex 34.53333333333334 1.2 0
      vertex 34.53333333333334 11.766666666666666 2.6
      vertex 34.53333333333334 1.2 20
    endloop
  endfacet
  facet normal 1 0 0
    outer loop
      vertex 34.53333333333334 11.766666666666666 2.6
      vertex 34.53333333333334 22.766666666666666 2.6
      vertex 34.53333333333334 1.2 20
    endloop
  endfacet
  facet normal -1 0 0
    outer loop
      vertex 33.333333333333336 1.2 0
      vertex 33.333333333333336 33.333333333333336 20
      vertex 33.333333333333336 11.766666666666666 2.6
    endloop
  endfacet
  facet normal 0 0 -1
    outer loop
      vertex 33.333333333333336 22.766666666666666 0
      vertex 34.53333333333334 33.333333333333336 0
      vertex 34.53333333333334 22.766666666666666 0
    endloop
  endfacet
  facet normal -1 0 0
    outer loop
      vertex 33.333333333333336 22.766666666666666 0
      vertex 33.333333333333336 22.766666666666666 2.6
      vertex 33.333333333333336 33.333333333333336 0
    endloop
  endfacet
  facet normal 1 0 0
    outer loop
      vertex 34.53333333333334 22.766666666666666 0
      vertex 34.53333333333334 33.333333333333336 0
      vertex 34.53333333333334 22.766666666666666 2.6
    endloop
  endfacet
  facet normal 0 0 -1
    outer loop
      vertex 33.333333333333336 22.766666666666666 0
      vertex 33.333333333333336 33.333333333333336 0
      vertex 34.53333333333334 33.333333333333336 0
    endloop
  endfacet
  facet normal 1 0 0
    outer loop
      vertex 34.53333333333334 22.766666666666666 2.6
      vertex 34.53333333333334 33.333333333333336 0
      vertex 34.53333333333334 1.2 20
    endloop
  endfacet
  facet normal -1 0 0
    outer loop
      vertex 33.333333333333336 11.766666666666666 2.6
      vertex 33.333333333333336 33.333333333333336 20
      vertex 33.333333333333336 22.766666666666666 2.6
    endloop
  endfacet
  facet normal -1 0 0
    outer loop
      vertex 33.333333333333336 22.766666666666666 2.6
      vertex 33.333333333333336 33.333333333333336 20
      vertex 33.333333333333336 33.333333333333336 0
    endloop
  endfacet
  facet normal -1 0 0
    outer loop
      vertex 33.333333333333336 1.2 0
      vertex 33.333333333333336 1.2 20
      vertex 33.333333333333336 33.333333333333336 20
    endloop
  endfacet
  facet normal 0 0 1
    outer loop
      vertex 33.333333333333336 1.2 20
      vertex 34.53333333333334 1.2 20
      vertex 34.53333333333334 33.333333333333336 20
    endloop
  endfacet
  facet normal 1 0 0
    outer loop
      vertex 34.53333333333334 1.2 20
      vertex 34.53333333333334 33.333333333333336 0
      vertex 34.53333333333334 33.333333333333336 20
    endloop
  endfacet
  facet normal 0 0 1
    outer loop
      vertex 33.333333333333336 1.2 20
      vertex 34.53333333333334 33.333333333333336 20
      vertex 33.333333333333336 33.333333333333336 20
    endloop
  endfacet
  facet normal 0 0 -1
    outer loop
      vertex 33.333333333333336 33.333333333333336 0
      vertex 33.333333333333336 34.53333333333334 0
      vertex 34.53333333333334 33.333333333333336 0
    endloop
  endfacet
  facet normal 0 0 -1
    outer loop
      vertex 33.333333333333336 34.53333333333334 0
      vertex 34.53333333333334 34.53333333333334 0
      vertex 34.53333333333334 33.333333333333336 0
    endloop
  endfacet
  facet normal 0 0 -1
    outer loop
      vertex 33.333333333333336 34.53333333333334 0
      vertex 34.53333333333334 42.53333333333334 0
      vertex 34.53333333333334 34.53333333333334 0
    endloop
  endfacet
  facet normal 0 0 -1
    outer loop
      vertex 33.333333333333336 34.53333333333334 0
      vertex 33.333333333333336 45.10000000000001 0
      vertex 34.53333333333334 45.10000000000001 0
    endloop
  endfacet
  facet normal 0 0 -1
    outer loop
      vertex 33.333333333333336 34.53333333333334 0
      vertex 34.53333333333334 45.10000000000001 0
      vertex 34.53333333333334 42.53333333333334 0
    endloop
  endfacet
  facet normal -1 0 0
    outer loop
      vertex 33.333333333333336 34.53333333333334 0
      vertex 33.333333333333336 45.10000000000001 2.6
      vertex 33.333333333333336 45.10000000000001 0
    endloop
  endfacet
  facet normal 1 0 0
    outer loop
      vertex 34.53333333333334 45.10000000000001 2.6
      vertex 34.53333333333334 34.53333333333334 1.2
      vertex 34.53333333333334 42.53333333333334 1.2
    endloop
  endfacet
  facet normal 1 0 0
    outer loop
      vertex 34.53333333333334 45.10000000000001 0
      vertex 34.53333333333334 42.53333333333334 1.2
      vertex 34.53333333333334 42.53333333333334 0
    endloop
  endfacet
  facet normal 1 0 0
    outer loop
      vertex 34.53333333333334 45.10000000000001 0
      vertex 34.53333333333334 45.10000000000001 2.6
      vertex 34.53333333333334 42.53333333333334 1.2
    endloop
  endfacet
  facet normal 1 0 0
    outer loop
      vertex 34.53333333333334 45.10000000000001 2.6
      vertex 34.53333333333334 34.53333333333334 20
      vertex 34.53333333333334 34.53333333333334 1.2
    endloop
  endfacet
  facet normal 1 0 0
    outer loop
      vertex 34.53333333333334 45.10000000000001 2.6
      vertex 34.53333333333334 56.10000000000001 2.6
      vertex 34.53333333333334 34.53333333333334 20
    endloop
  endfacet
  facet normal -1 0 0
    outer loop
      vertex 33.333333333333336 34.53333333333334 0
      vertex 33.333333333333336 66.66666666666667 20
      vertex 33.333333333333336 45.10000000000001 2.6
    endloop
  endfacet
  facet normal 0 0 -1
    outer loop
      vertex 33.333333333333336 56.10000000000001 0
      vertex 34.53333333333334 66.66666666666667 0
      vertex 34.53333333333334 56.10000000000001 0
    endloop
  endfacet
  facet normal -1 0 0
    outer loop
      vertex 33.333333333333336 56.10000000000001 0
      vertex 33.333333333333336 56.10000000000001 2.6
      vertex 33.333333333333336 66.66666666666667 0
    endloop
  endfacet
  facet normal 1 0 0
    outer loop
      vertex 34.53333333333334 56.10000000000001 0
      vertex 34.53333333333334 66.66666666666667 0
      vertex 34.53333333333334 56.10000000000001 2.6
    endloop
  endfacet
  facet normal 0 0 -1
    outer loop
      vertex 33.333333333333336 56.10000000000001 0
      vertex 33.333333333333336 66.66666666666667 0
      vertex 34.53333333333334 66.66666666666667 0
    endloop
  endfacet
  facet normal 1 0 0
    outer loop
      vertex 34.53333333333334 56.10000000000001 2.6
      vertex 34.53333333333334 66.66666666666667 0
      vertex 34.53333333333334 34.53333333333334 20
    endloop
  endfacet
  facet normal -1 0 0
    outer loop
      vertex 33.333333333333336 45.10000000000001 2.6
      vertex 33.333333333333336 66.66666666666667 20
      vertex 33.333333333333336 56.10000000000001 2.6
    endloop
  endfacet
  facet normal 0 1 0
    outer loop
      vertex 33.333333333333336 66.66666666666667 0
      vertex 33.333333333333336 66.66666666666667 20
      vertex 34.53333333333334 66.66666666666667 0
    endloop
  endfacet
  facet normal -1 0 0
    outer loop
      vertex 33.333333333333336 56.10000000000001 2.6
      vertex 33.333333333333336 66.66666666666667 20
      vertex 33.333333333333336 66.66666666666667 0
    endloop
  endfacet
  facet normal -1 0 0
    outer loop
      vertex 33.333333333333336 34.53333333333334 0
      vertex 33.333333333333336 34.53333333333334 20
      vertex 33.333333333333336 66.66666666666667 20
    endloop
  endfacet
  facet normal 0 0 1
    outer loop
      vertex 33.333333333333336 34.53333333333334 20
      vertex 34.53333333333334 34.53333333333334 20
      vertex 34.53333333333334 66.66666666666667 20
    endloop
  endfacet
  facet normal 1 0 0
    outer loop
      vertex 34.53333333333334 66.66666666666667 0
      vertex 34.53333333333334 66.66666666666667 20
      vertex 34.53333333333334 34.53333333333334 20
    endloop
  endfacet
  facet normal 0 1 0
    outer loop
      vertex 34.53333333333334 66.66666666666667 0
      vertex 33.333333333333336 66.66666666666667 20
      vertex 34.53333333333334 66.66666666666667 20
    endloop
  endfacet
  facet normal 0 0 1
    outer loop
      vertex 33.333333333333336 34.53333333333334 20
      vertex 34.53333333333334 66.66666666666667 20
      vertex 33.333333333333336 66.66666666666667 20
    endloop
  endfacet
  facet normal 0 1 0
    outer loop
      vertex 0 11.766666666666666 0
      vertex 0 11.766666666666666 2.6
      vertex 1.2 11.766666666666666 0
    endloop
  endfacet
  facet normal 0 1 0
    outer loop
      vertex 1.2 11.766666666666666 0
      vertex 0 11.766666666666666 2.6
      vertex 1.2 11.766666666666666 2.6
    endloop
  endfacet
  facet normal 0 0 -1
    outer loop
      vertex 0 11.766666666666666 2.6
      vertex 1.2 22.766666666666666 2.6
      vertex 1.2 11.766666666666666 2.6
    endloop
  endfacet
  facet normal 0 -1 0
    outer loop
      vertex 0 22.766666666666666 0
      vertex 1.2 22.766666666666666 0
      vertex 0 22.766666666666666 2.6
    endloop
  endfacet
  facet normal 0 -1 0
    outer loop
      vertex 1.2 22.766666666666666 0
      vertex 1.2 22.766666666666666 2.6
      vertex 0 22.766666666666666 2.6
    endloop
  endfacet
  facet normal 0 0 -1
    outer loop
      vertex 0 11.766666666666666 2.6
      vertex 0 22.766666666666666 2.6
      vertex 1.2 22.766666666666666 2.6
    endloop
  endfacet
  facet normal 0 1 0
    outer loop
      vertex 33.333333333333336 11.766666666666666 0
      vertex 34.53333333333334 11.766666666666666 2.6
      vertex 34.53333333333334 11.766666666666666 0
    endloop
  endfacet
  facet normal 0 1 0
    outer loop
      vertex 33.333333333333336 11.766666666666666 0
      vertex 33.333333333333336 11.766666666666666 2.6
      vertex 34.53333333333334 11.766666666666666 2.6
    endloop
  endfacet
  facet normal 0 0 -1
    outer loop
      vertex 33.333333333333336 11.766666666666666 2.6
      vertex 34.53333333333334 22.766666666666666 2.6
      vertex 34.53333333333334 11.766666666666666 2.6
    endloop
  endfacet
  facet normal 0 -1 0
    outer loop
      vertex 33.333333333333336 22.766666666666666 0
      vertex 34.53333333333334 22.766666666666666 0
      vertex 33.333333333333336 22.766666666666666 2.6
    endloop
  endfacet
  facet normal 0 -1 0
    outer loop
      vertex 34.53333333333334 22.766666666666666 0
      vertex 34.53333333333334 22.766666666666666 2.6
      vertex 33.333333333333336 22.766666666666666 2.6
    endloop
  endfacet
  facet normal 0 0 -1
    outer loop
      vertex 33.333333333333336 11.766666666666666 2.6
      vertex 33.333333333333336 22.766666666666666 2.6
      vertex 34.53333333333334 22.766666666666666 2.6
    endloop
  endfacet
  facet normal 0 1 0
    outer loop
      vertex 0 45.10000000000001 0
      vertex 0 45.10000000000001 2.6
      vertex 1.2 45.10000000000001 0
    endloop
  endfacet
  facet normal 0 1 0
    outer loop
      vertex 1.2 45.10000000000001 0
      vertex 0 45.10000000000001 2.6
      vertex 1.2 45.10000000000001 2.6
    endloop
  endfacet
  facet normal 0 0 -1
    outer loop
      vertex 0 45.10000000000001 2.6
      vertex 1.2 56.10000000000001 2.6
      vertex 1.2 45.10000000000001 2.6
    endloop
  endfacet
  facet normal 0 -1 0
    outer loop
      vertex 0 56.10000000000001 0
      vertex 1.2 56.10000000000001 0
      vertex 0 56.10000000000001 2.6
    endloop
  endfacet
  facet normal 0 -1 0
    outer loop
      vertex 1.2 56.10000000000001 0
      vertex 1.2 56.10000000000001 2.6
      vertex 0 56.10000000000001 2.6
    endloop
  endfacet
  facet normal 0 0 -1
    outer loop
      vertex 0 45.10000000000001 2.6
      vertex 0 56.10000000000001 2.6
      vertex 1.2 56.10000000000001 2.6
    endloop
  endfacet
  facet normal 0 1 0
    outer loop
      vertex 33.333333333333336 45.10000000000001 0
      vertex 34.53333333333334 45.10000000000001 2.6
      vertex 34.53333333333334 45.10000000000001 0
    endloop
  endfacet
  facet normal 0 1 0
    outer loop
      vertex 33.333333333333336 45.10000000000001 0
      vertex 33.333333333333336 45.10000000000001 2.6
      vertex 34.53333333333334 45.10000000000001 2.6
    endloop
  endfacet
  facet normal 0 0 -1
    outer loop
      vertex 33.333333333333336 45.10000000000001 2.6
      vertex 34.53333333333334 56.10000000000001 2.6
      vertex 34.53333333333334 45.10000000000001 2.6
    endloop
  endfacet
  facet normal 0 -1 0
    outer loop
      vertex 33.333333333333336 56.10000000000001 0
      vertex 34.53333333333334 56.10000000000001 0
      vertex 33.333333333333336 56.10000000000001 2.6
    endloop
  endfacet
  facet normal 0 -1 0
    outer loop
      vertex 34.53333333333334 56.10000000000001 0
      vertex 34.53333333333334 56.10000000000001 2.6
      vertex 33.333333333333336 56.10000000000001 2.6
    endloop
  endfacet
  facet normal 0 0 -1
    outer loop
      vertex 33.333333333333336 45.10000000000001 2.6
      vertex 33.333333333333336 56.10000000000001 2.6
      vertex 34.53333333333334 56.10000000000001 2.6
    endloop
  endfacet
  facet normal 0 0 -1
    outer loop
      vertex 3.721792747981941 4.587706508215857 0
      vertex 1.2 1.2 0
      vertex 3.6307435513548314 4.887855484774195 0
    endloop
  endfacet
  facet normal 0 0 -1
    outer loop
      vertex 3.721792747981941 4.587706508215857 0
      vertex 3.8696486203159277 4.311087627168637 0
      vertex 1.2 1.2 0
    endloop
  endfacet
  facet normal 0 0 -1
    outer loop
      vertex 4.068629150101524 4.068629150101524 0
      vertex 1.2 1.2 0
      vertex 3.8696486203159277 4.311087627168637 0
    endloop
  endfacet
  facet normal 0 0 -1
    outer loop
      vertex 3.6307435513548314 4.887855484774195 0
      vertex 1.2 1.2 0
      vertex 3.6 5.2 0
    endloop
  endfacet
  facet normal 0 0 -1
    outer loop
      vertex 3.6 5.2 0
      vertex 1.2 1.2 0
      vertex 3.6307435513548314 5.512144515225805 0
    endloop
  endfacet
  facet normal 0 0 -1
    outer loop
      vertex 4.068629150101524 4.068629150101524 0
      vertex 4.311087627168637 3.8696486203159277 0
      vertex 1.2 1.2 0
    endloop
  endfacet
  facet normal 0 0 -1
    outer loop
      vertex 4.587706508215857 3.721792747981941 0
      vertex 1.2 1.2 0
      vertex 4.311087627168637 3.8696486203159277 0
    endloop
  endfacet
  facet normal 0 0 -1
    outer loop
      vertex 4.587706508215857 3.721792747981941 0
      vertex 4.887855484774195 3.6307435513548314 0
      vertex 1.2 1.2 0
    endloop
  endfacet
  facet normal 0 0 -1
    outer loop
      vertex 4.887855484774195 3.6307435513548314 0
      vertex 5.2 3.6 0
      vertex 1.2 1.2 0
    endloop
  endfacet
  facet normal 0 0 -1
    outer loop
      vertex 5.2 3.6 0
      vertex 5.512144515225805 3.6307435513548314 0
      vertex 1.2 1.2 0
    endloop
  endfacet
  facet normal 0 0 1
    outer loop
      vertex 3.721792747981941 4.587706508215857 1.2
      vertex 3.6307435513548314 4.887855484774195 1.2
      vertex 1.2 1.2 1.2
    endloop
  endfacet
  facet normal 0 0 1
    outer loop
      vertex 3.721792747981941 4.587706508215857 1.2
      vertex 1.2 1.2 1.2
      vertex 3.8696486203159277 4.311087627168637 1.2
    endloop
  endfacet
  facet normal 0 0 1
    outer loop
      vertex 4.068629150101524 4.068629150101524 1.2
      vertex 3.8696486203159277 4.311087627168637 1.2
      vertex 1.2 1.2 1.2
    endloop
  endfacet
  facet normal 0 0 1
    outer loop
      vertex 3.6307435513548314 4.887855484774195 1.2
      vertex 3.6 5.2 1.2
      vertex 1.2 1.2 1.2
    endloop
  endfacet
  facet normal 0 0 1
    outer loop
      vertex 3.6 5.2 1.2
      vertex 3.6307435513548314 5.512144515225805 1.2
      vertex 1.2 1.2 1.2
    endloop
  endfacet
  facet normal 0 0 1
    outer loop
      vertex 4.068629150101524 4.068629150101524 1.2
      vertex 1.2 1.2 1.2
      vertex 4.311087627168637 3.8696486203159277 1.2
    endloop
  endfacet
  facet normal 0 0 1
    outer loop
      vertex 4.587706508215857 3.721792747981941 1.2
      vertex 4.311087627168637 3.8696486203159277 1.2
      vertex 1.2 1.2 1.2
    endloop
  endfacet
  facet normal 0 0 -1
    outer loop
      vertex 3.6307435513548314 5.512144515225805 0
      vertex 1.2 1.2 0
      vertex 1.2 9.2 0
    endloop
  endfacet
  facet normal 0 0 1
    outer loop
      vertex 3.721792747981941 5.812293491784144 1.2
      vertex 1.2 9.2 1.2
      vertex 1.2 1.2 1.2
    endloop
  endfacet
  facet normal 0 0 1
    outer loop
      vertex 3.6307435513548314 5.512144515225805 1.2
      vertex 3.721792747981941 5.812293491784144 1.2
      vertex 1.2 1.2 1.2
    endloop
  endfacet
  facet normal 0 0 -1
    outer loop
      vertex 3.6307435513548314 5.512144515225805 0
      vertex 1.2 9.2 0
      vertex 3.721792747981941 5.812293491784144 0
    endloop
  endfacet
  facet normal 0 0 -1
    outer loop
      vertex 3.721792747981941 5.812293491784144 0
      vertex 1.2 9.2 0
      vertex 3.8696486203159277 6.088912372831364 0
    endloop
  endfacet
  facet normal 0 0 -1
    outer loop
      vertex 3.8696486203159277 6.088912372831364 0
      vertex 1.2 9.2 0
      vertex 4.068629150101524 6.331370849898477 0
    endloop
  endfacet
  facet normal 0 0 -1
    outer loop
      vertex 4.068629150101524 6.331370849898477 0
      vertex 1.2 9.2 0
      vertex 4.311087627168637 6.530351379684072 0
    endloop
  endfacet
  facet normal 0 0 -1
    outer loop
      vertex 4.311087627168637 6.530351379684072 0
      vertex 1.2 9.2 0
      vertex 4.587706508215857 6.678207252018059 0
    endloop
  endfacet
  facet normal 0 0 -1
    outer loop
      vertex 4.587706508215857 6.678207252018059 0
      vertex 1.2 9.2 0
      vertex 4.887855484774195 6.769256448645169 0
    endloop
  endfacet
  facet normal 0 0 -1
    outer loop
      vertex 4.887855484774195 6.769256448645169 0
      vertex 1.2 9.2 0
      vertex 5.2 6.800000000000001 0
    endloop
  endfacet
  facet normal 0 0 -1
    outer loop
      vertex 5.2 6.800000000000001 0
      vertex 1.2 9.2 0
      vertex 5.512144515225805 6.769256448645169 0
    endloop
  endfacet
  facet normal 0 0 1
    outer loop
      vertex 3.721792747981941 5.812293491784144 1.2
      vertex 3.8696486203159277 6.088912372831364 1.2
      vertex 1.2 9.2 1.2
    endloop
  endfacet
  facet normal 0 0 1
    outer loop
      vertex 3.8696486203159277 6.088912372831364 1.2
      vertex 4.068629150101524 6.331370849898477 1.2
      vertex 1.2 9.2 1.2
    endloop
  endfacet
  facet normal 0 0 1
    outer loop
      vertex 4.068629150101524 6.331370849898477 1.2
      vertex 4.311087627168637 6.530351379684072 1.2
      vertex 1.2 9.2 1.2
    endloop
  endfacet
  facet normal 0 0 1
    outer loop
      vertex 4.311087627168637 6.530351379684072 1.2
      vertex 4.587706508215857 6.678207252018059 1.2
      vertex 1.2 9.2 1.2
    endloop
  endfacet
  facet normal 0 0 1
    outer loop
      vertex 4.587706508215857 6.678207252018059 1.2
      vertex 4.887855484774195 6.769256448645169 1.2
      vertex 1.2 9.2 1.2
    endloop
  endfacet
  facet normal 0 0 -1
    outer loop
      vertex 5.812293491784144 3.721792747981941 0
      vertex 9.2 1.2 0
      vertex 1.2 1.2 0
    endloop
  endfacet
  facet normal 0 0 1
    outer loop
      vertex 4.587706508215857 3.721792747981941 1.2
      vertex 1.2 1.2 1.2
      vertex 9.2 1.2 1.2
    endloop
  endfacet
  facet normal 0 0 -1
    outer loop
      vertex 5.512144515225805 3.6307435513548314 0
      vertex 5.812293491784144 3.721792747981941 0
      vertex 1.2 1.2 0
    endloop
  endfacet
  facet normal 0 0 1
    outer loop
      vertex 4.587706508215857 3.721792747981941 1.2
      vertex 9.2 1.2 1.2
      vertex 4.887855484774195 3.6307435513548314 1.2
    endloop
  endfacet
  facet normal 0 0 -1
    outer loop
      vertex 5.812293491784144 3.721792747981941 0
      vertex 6.088912372831364 3.8696486203159277 0
      vertex 9.2 1.2 0
    endloop
  endfacet
  facet normal 0 0 -1
    outer loop
      vertex 6.088912372831364 3.8696486203159277 0
      vertex 6.331370849898477 4.068629150101524 0
      vertex 9.2 1.2 0
    endloop
  endfacet
  facet normal 0 0 -1
    outer loop
      vertex 6.331370849898477 4.068629150101524 0
      vertex 6.530351379684072 4.311087627168637 0
      vertex 9.2 1.2 0
    endloop
  endfacet
  facet normal 0 0 -1
    outer loop
      vertex 6.530351379684072 4.311087627168637 0
      vertex 6.678207252018059 4.587706508215857 0
      vertex 9.2 1.2 0
    endloop
  endfacet
  facet normal 0 0 -1
    outer loop
      vertex 6.678207252018059 4.587706508215857 0
      vertex 6.769256448645169 4.887855484774195 0
      vertex 9.2 1.2 0
    endloop
  endfacet
  facet normal 0 0 -1
    outer loop
      vertex 6.769256448645169 4.887855484774195 0
      vertex 6.800000000000001 5.2 0
      vertex 9.2 1.2 0
    endloop
  endfacet
  facet normal 0 0 -1
    outer loop
      vertex 6.800000000000001 5.2 0
      vertex 6.769256448645169 5.512144515225805 0
      vertex 9.2 1.2 0
    endloop
  endfacet
  facet normal 0 0 1
    outer loop
      vertex 4.887855484774195 3.6307435513548314 1.2
      vertex 9.2 1.2 1.2
      vertex 5.2 3.6 1.2
    endloop
  endfacet
  facet normal 0 0 1
    outer loop
      vertex 5.2 3.6 1.2
      vertex 9.2 1.2 1.2
      vertex 5.512144515225805 3.6307435513548314 1.2
    endloop
  endfacet
  facet normal 0 0 1
    outer loop
      vertex 5.512144515225805 3.6307435513548314 1.2
      vertex 9.2 1.2 1.2
      vertex 5.812293491784144 3.721792747981941 1.2
    endloop
  endfacet
  facet normal 0 0 1
    outer loop
      vertex 5.812293491784144 3.721792747981941 1.2
      vertex 9.2 1.2 1.2
      vertex 6.088912372831364 3.8696486203159277 1.2
    endloop
  endfacet
  facet normal 0 0 1
    outer loop
      vertex 6.088912372831364 3.8696486203159277 1.2
      vertex 9.2 1.2 1.2
      vertex 6.331370849898476 4.068629150101524 1.2
    endloop
  endfacet
  facet normal 0 0 1
    outer loop
      vertex 6.331370849898476 4.068629150101524 1.2
      vertex 9.2 1.2 1.2
      vertex 6.530351379684072 4.311087627168637 1.2
    endloop
  endfacet
  facet normal 0 0 1
    outer loop
      vertex 6.530351379684072 4.311087627168637 1.2
      vertex 9.2 1.2 1.2
      vertex 6.678207252018059 4.587706508215857 1.2
    endloop
  endfacet
  facet normal 0 0 -1
    outer loop
      vertex 6.769256448645169 5.512144515225805 0
      vertex 6.678207252018059 5.812293491784144 0
      vertex 9.2 1.2 0
    endloop
  endfacet
  facet normal 0 0 1
    outer loop
      vertex 6.678207252018059 4.587706508215857 1.2
      vertex 9.2 9.2 1.2
      vertex 6.769256448645169 4.887855484774195 1.2
    endloop
  endfacet
  facet normal 0 0 -1
    outer loop
      vertex 5.512144515225805 6.769256448645169 0
      vertex 9.2 9.2 0
      vertex 5.812293491784144 6.678207252018059 0
    endloop
  endfacet
  facet normal 0 0 -1
    outer loop
      vertex 5.812293491784144 6.678207252018059 0
      vertex 9.2 9.2 0
      vertex 6.088912372831364 6.530351379684072 0
    endloop
  endfacet
  facet normal 0 0 -1
    outer loop
      vertex 6.331370849898477 6.331370849898477 0
      vertex 6.088912372831364 6.530351379684072 0
      vertex 9.2 9.2 0
    endloop
  endfacet
  facet normal 0 0 -1
    outer loop
      vertex 6.331370849898477 6.331370849898477 0
      vertex 9.2 9.2 0
      vertex 6.530351379684072 6.088912372831364 0
    endloop
  endfacet
  facet normal 0 0 -1
    outer loop
      vertex 6.678207252018059 5.812293491784144 0
      vertex 6.530351379684072 6.088912372831364 0
      vertex 9.2 9.2 0
    endloop
  endfacet
  facet normal 0 0 1
    outer loop
      vertex 4.887855484774195 6.769256448645169 1.2
      vertex 5.2 6.800000000000001 1.2
      vertex 9.2 9.2 1.2
    endloop
  endfacet
  facet normal 0 0 1
    outer loop
      vertex 5.2 6.800000000000001 1.2
      vertex 5.512144515225805 6.769256448645169 1.2
      vertex 9.2 9.2 1.2
    endloop
  endfacet
  facet normal 0 0 1
    outer loop
      vertex 5.512144515225805 6.769256448645169 1.2
      vertex 5.812293491784144 6.678207252018059 1.2
      vertex 9.2 9.2 1.2
    endloop
  endfacet
  facet normal 0 0 1
    outer loop
      vertex 5.812293491784144 6.678207252018059 1.2
      vertex 6.088912372831364 6.530351379684072 1.2
      vertex 9.2 9.2 1.2
    endloop
  endfacet
  facet normal 0 0 1
    outer loop
      vertex 6.331370849898477 6.331370849898477 1.2
      vertex 9.2 9.2 1.2
      vertex 6.088912372831364 6.530351379684072 1.2
    endloop
  endfacet
  facet normal 0 0 1
    outer loop
      vertex 6.769256448645169 4.887855484774195 1.2
      vertex 9.2 9.2 1.2
      vertex 6.800000000000001 5.2 1.2
    endloop
  endfacet
  facet normal 0 0 1
    outer loop
      vertex 6.800000000000001 5.2 1.2
      vertex 9.2 9.2 1.2
      vertex 6.769256448645169 5.512144515225805 1.2
    endloop
  endfacet
  facet normal 0 0 1
    outer loop
      vertex 6.769256448645169 5.512144515225805 1.2
      vertex 9.2 9.2 1.2
      vertex 6.678207252018059 5.812293491784144 1.2
    endloop
  endfacet
  facet normal 0 0 1
    outer loop
      vertex 6.331370849898477 6.331370849898477 1.2
      vertex 6.530351379684072 6.088912372831364 1.2
      vertex 9.2 9.2 1.2
    endloop
  endfacet
  facet normal 0 0 1
    outer loop
      vertex 6.678207252018059 5.812293491784144 1.2
      vertex 9.2 9.2 1.2
      vertex 6.530351379684072 6.088912372831364 1.2
    endloop
  endfacet
  facet normal 0 1 0
    outer loop
      vertex 9.2 9.2 0
      vertex 1.2 9.2 0
      vertex 1.2 9.2 1.2
    endloop
  endfacet
  facet normal 0 0 -1
    outer loop
      vertex 5.512144515225805 6.769256448645169 0
      vertex 1.2 9.2 0
      vertex 9.2 9.2 0
    endloop
  endfacet
  facet normal 0 0 1
    outer loop
      vertex 4.887855484774195 6.769256448645169 1.2
      vertex 9.2 9.2 1.2
      vertex 1.2 9.2 1.2
    endloop
  endfacet
  facet normal 0 1 0
    outer loop
      vertex 9.2 9.2 0
      vertex 1.2 9.2 1.2
      vertex 9.2 9.2 1.2
    endloop
  endfacet
  facet normal 1 0 0
    outer loop
      vertex 9.2 9.2 0
      vertex 9.2 1.2 1.2
      vertex 9.2 1.2 0
    endloop
  endfacet
  facet normal 0 0 -1
    outer loop
      vertex 6.678207252018059 5.812293491784144 0
      vertex 9.2 9.2 0
      vertex 9.2 1.2 0
    endloop
  endfacet
  facet normal 0 0 1
    outer loop
      vertex 6.678207252018059 4.587706508215857 1.2
      vertex 9.2 1.2 1.2
      vertex 9.2 9.2 1.2
    endloop
  endfacet
  facet normal 1 0 0
    outer loop
      vertex 9.2 9.2 0
      vertex 9.2 9.2 1.2
      vertex 9.2 1.2 1.2
    endloop
  endfacet
  facet normal 0.634393284163644 0.7730104533627381 0
    outer loop
      vertex 4.068629150101524 4.068629150101524 0
      vertex 4.068629150101524 4.068629150101524 1.2
      vertex 4.311087627168637 3.8696486203159277 0
    endloop
  endfacet
  facet normal 0.7730104533627381 0.634393284163644 0
    outer loop
      vertex 4.068629150101524 4.068629150101524 0
      vertex 3.8696486203159277 4.311087627168637 1.2
      vertex 4.068629150101524 4.068629150101524 1.2
    endloop
  endfacet
  facet normal 0.9951847266721968 0.09801714032956071 1.7116979137877285e-18
    outer loop
      vertex 3.6307435513548314 4.887855484774195 0
      vertex 3.6 5.2 0
      vertex 3.6 5.2 1.2
    endloop
  endfacet
  facet normal 0.8819212643483548 0.471396736825998 0
    outer loop
      vertex 3.721792747981941 4.587706508215857 0
      vertex 3.721792747981941 4.587706508215857 1.2
      vertex 3.8696486203159277 4.311087627168637 0
    endloop
  endfacet
  facet normal 0.7730104533627381 0.634393284163644 4.0085624263053994e-18
    outer loop
      vertex 4.068629150101524 4.068629150101524 0
      vertex 3.8696486203159277 4.311087627168637 0
      vertex 3.8696486203159277 4.311087627168637 1.2
    endloop
  endfacet
  facet normal 0.9569403357322089 0.2902846772544617 -3.5426117127100134e-18
    outer loop
      vertex 3.721792747981941 4.587706508215857 0
      vertex 3.6307435513548314 4.887855484774195 0
      vertex 3.6307435513548314 4.887855484774195 1.2
    endloop
  endfacet
  facet normal 0.9951847266721968 -0.09801714032956071 -1.7116979137877285e-18
    outer loop
      vertex 3.6 5.2 0
      vertex 3.6307435513548314 5.512144515225805 0
      vertex 3.6307435513548314 5.512144515225805 1.2
    endloop
  endfacet
  facet normal 0.9569403357322089 -0.2902846772544617 3.5426117127100134e-18
    outer loop
      vertex 3.6307435513548314 5.512144515225805 0
      vertex 3.721792747981941 5.812293491784144 0
      vertex 3.721792747981941 5.812293491784144 1.2
    endloop
  endfacet
  facet normal 0.8819212643483548 -0.471396736825998 2.5196827607844663e-18
    outer loop
      vertex 3.721792747981941 5.812293491784144 0
      vertex 3.8696486203159277 6.088912372831364 0
      vertex 3.8696486203159277 6.088912372831364 1.2
    endloop
  endfacet
  facet normal 0.9951847266721968 0.09801714032956071 0
    outer loop
      vertex 3.6307435513548314 4.887855484774195 0
      vertex 3.6 5.2 1.2
      vertex 3.6307435513548314 4.887855484774195 1.2
    endloop
  endfacet
  facet normal 0.8819212643483548 0.471396736825998 0
    outer loop
      vertex 3.8696486203159277 4.311087627168637 0
      vertex 3.721792747981941 4.587706508215857 1.2
      vertex 3.8696486203159277 4.311087627168637 1.2
    endloop
  endfacet
  facet normal 0.9569403357322089 0.2902846772544617 0
    outer loop
      vertex 3.721792747981941 4.587706508215857 0
      vertex 3.6307435513548314 4.887855484774195 1.2
      vertex 3.721792747981941 4.587706508215857 1.2
    endloop
  endfacet
  facet normal 0.9951847266721968 -0.09801714032956071 0
    outer loop
      vertex 3.6 5.2 0
      vertex 3.6307435513548314 5.512144515225805 1.2
      vertex 3.6 5.2 1.2
    endloop
  endfacet
  facet normal 0.9569403357322089 -0.2902846772544617 0
    outer loop
      vertex 3.6307435513548314 5.512144515225805 0
      vertex 3.721792747981941 5.812293491784144 1.2
      vertex 3.6307435513548314 5.512144515225805 1.2
    endloop
  endfacet
  facet normal 0.8819212643483548 -0.471396736825998 0
    outer loop
      vertex 3.721792747981941 5.812293491784144 0
      vertex 3.8696486203159277 6.088912372831364 1.2
      vertex 3.721792747981941 5.812293491784144 1.2
    endloop
  endfacet
  facet normal 0.7730104533627381 -0.634393284163644 0
    outer loop
      vertex 3.8696486203159277 6.088912372831364 0
      vertex 4.068629150101524 6.331370849898477 1.2
      vertex 3.8696486203159277 6.088912372831364 1.2
    endloop
  endfacet
  facet normal 0.7730104533627381 -0.634393284163644 -4.0085624263053994e-18
    outer loop
      vertex 3.8696486203159277 6.088912372831364 0
      vertex 4.068629150101524 6.331370849898477 0
      vertex 4.068629150101524 6.331370849898477 1.2
    endloop
  endfacet
  facet normal 0.6343932841636432 -0.7730104533627388 0
    outer loop
      vertex 4.068629150101524 6.331370849898477 0
      vertex 4.311087627168637 6.530351379684072 1.2
      vertex 4.068629150101524 6.331370849898477 1.2
    endloop
  endfacet
  facet normal 0.471396736825998 0.8819212643483548 -2.5196827607844663e-18
    outer loop
      vertex 4.587706508215857 3.721792747981941 0
      vertex 4.311087627168637 3.8696486203159277 0
      vertex 4.311087627168637 3.8696486203159277 1.2
    endloop
  endfacet
  facet normal 0.09801714032956071 0.9951847266721968 0
    outer loop
      vertex 4.887855484774195 3.6307435513548314 0
      vertex 4.887855484774195 3.6307435513548314 1.2
      vertex 5.2 3.6 0
    endloop
  endfacet
  facet normal 0.2902846772544617 0.9569403357322089 0
    outer loop
      vertex 4.587706508215857 3.721792747981941 0
      vertex 4.587706508215857 3.721792747981941 1.2
      vertex 4.887855484774195 3.6307435513548314 0
    endloop
  endfacet
  facet normal -0.09801714032956071 0.9951847266721968 0
    outer loop
      vertex 5.2 3.6 0
      vertex 5.2 3.6 1.2
      vertex 5.512144515225805 3.6307435513548314 0
    endloop
  endfacet
  facet normal -0.2902846772544617 0.9569403357322089 0
    outer loop
      vertex 5.512144515225805 3.6307435513548314 0
      vertex 5.512144515225805 3.6307435513548314 1.2
      vertex 5.812293491784144 3.721792747981941 0
    endloop
  endfacet
  facet normal -0.471396736825998 0.8819212643483548 0
    outer loop
      vertex 5.812293491784144 3.721792747981941 0
      vertex 5.812293491784144 3.721792747981941 1.2
      vertex 6.088912372831364 3.8696486203159277 0
    endloop
  endfacet
  facet normal -0.634393284163644 0.7730104533627381 0
    outer loop
      vertex 6.088912372831364 3.8696486203159277 0
      vertex 6.088912372831364 3.8696486203159277 1.2
      vertex 6.331370849898477 4.068629150101524 0
    endloop
  endfacet
  facet normal 0.634393284163644 0.7730104533627381 0
    outer loop
      vertex 4.311087627168637 3.8696486203159277 0
      vertex 4.068629150101524 4.068629150101524 1.2
      vertex 4.311087627168637 3.8696486203159277 1.2
    endloop
  endfacet
  facet normal 0.471396736825998 0.8819212643483548 0
    outer loop
      vertex 4.587706508215857 3.721792747981941 0
      vertex 4.311087627168637 3.8696486203159277 1.2
      vertex 4.587706508215857 3.721792747981941 1.2
    endloop
  endfacet
  facet normal 0.09801714032956071 0.9951847266721968 0
    outer loop
      vertex 5.2 3.6 0
      vertex 4.887855484774195 3.6307435513548314 1.2
      vertex 5.2 3.6 1.2
    endloop
  endfacet
  facet normal 0.2902846772544617 0.9569403357322089 0
    outer loop
      vertex 4.887855484774195 3.6307435513548314 0
      vertex 4.587706508215857 3.721792747981941 1.2
      vertex 4.887855484774195 3.6307435513548314 1.2
    endloop
  endfacet
  facet normal -0.09801714032956071 0.9951847266721968 0
    outer loop
      vertex 5.512144515225805 3.6307435513548314 0
      vertex 5.2 3.6 1.2
      vertex 5.512144515225805 3.6307435513548314 1.2
    endloop
  endfacet
  facet normal -0.2902846772544617 0.9569403357322089 0
    outer loop
      vertex 5.812293491784144 3.721792747981941 0
      vertex 5.512144515225805 3.6307435513548314 1.2
      vertex 5.812293491784144 3.721792747981941 1.2
    endloop
  endfacet
  facet normal -0.471396736825998 0.8819212643483548 0
    outer loop
      vertex 6.088912372831364 3.8696486203159277 0
      vertex 5.812293491784144 3.721792747981941 1.2
      vertex 6.088912372831364 3.8696486203159277 1.2
    endloop
  endfacet
  facet normal -0.7730104533627388 0.6343932841636432 -5.721426690661623e-16
    outer loop
      vertex 6.331370849898477 4.068629150101524 0
      vertex 6.331370849898476 4.068629150101524 1.2
      vertex 6.530351379684072 4.311087627168637 0
    endloop
  endfacet
  facet normal -0.6343932841636454 0.773010453362737 -4.695453538306992e-16
    outer loop
      vertex 6.331370849898477 4.068629150101524 0
      vertex 6.088912372831364 3.8696486203159277 1.2
      vertex 6.331370849898476 4.068629150101524 1.2
    endloop
  endfacet
  facet normal 0.6343932841636432 -0.7730104533627388 4.8895118168387024e-18
    outer loop
      vertex 4.068629150101524 6.331370849898477 0
      vertex 4.311087627168637 6.530351379684072 0
      vertex 4.311087627168637 6.530351379684072 1.2
    endloop
  endfacet
  facet normal 0.47139673682599914 -0.8819212643483543 -2.9444709171109595e-18
    outer loop
      vertex 4.311087627168637 6.530351379684072 0
      vertex 4.587706508215857 6.678207252018059 0
      vertex 4.587706508215857 6.678207252018059 1.2
    endloop
  endfacet
  facet normal 0.290284677254463 -0.9569403357322087 -1.8122905925059782e-18
    outer loop
      vertex 4.587706508215857 6.678207252018059 0
      vertex 4.887855484774195 6.769256448645169 0
      vertex 4.887855484774195 6.769256448645169 1.2
    endloop
  endfacet
  facet normal 0.09801714032956071 -0.9951847266721968 -1.7116979137877285e-18
    outer loop
      vertex 4.887855484774195 6.769256448645169 0
      vertex 5.2 6.800000000000001 0
      vertex 5.2 6.800000000000001 1.2
    endloop
  endfacet
  facet normal -0.290284677254463 -0.9569403357322087 1.8122905925059782e-18
    outer loop
      vertex 5.512144515225805 6.769256448645169 0
      vertex 5.812293491784144 6.678207252018059 0
      vertex 5.812293491784144 6.678207252018059 1.2
    endloop
  endfacet
  facet normal -0.09801714032956071 -0.9951847266721968 1.7116979137877285e-18
    outer loop
      vertex 5.2 6.800000000000001 0
      vertex 5.512144515225805 6.769256448645169 0
      vertex 5.512144515225805 6.769256448645169 1.2
    endloop
  endfacet
  facet normal -0.47139673682599914 -0.8819212643483543 2.9444709171109595e-18
    outer loop
      vertex 5.812293491784144 6.678207252018059 0
      vertex 6.088912372831364 6.530351379684072 0
      vertex 6.088912372831364 6.530351379684072 1.2
    endloop
  endfacet
  facet normal 0.47139673682599914 -0.8819212643483543 0
    outer loop
      vertex 4.311087627168637 6.530351379684072 0
      vertex 4.587706508215857 6.678207252018059 1.2
      vertex 4.311087627168637 6.530351379684072 1.2
    endloop
  endfacet
  facet normal 0.290284677254463 -0.9569403357322087 0
    outer loop
      vertex 4.587706508215857 6.678207252018059 0
      vertex 4.887855484774195 6.769256448645169 1.2
      vertex 4.587706508215857 6.678207252018059 1.2
    endloop
  endfacet
  facet normal 0.09801714032956071 -0.9951847266721968 0
    outer loop
      vertex 4.887855484774195 6.769256448645169 0
      vertex 5.2 6.800000000000001 1.2
      vertex 4.887855484774195 6.769256448645169 1.2
    endloop
  endfacet
  facet normal -0.290284677254463 -0.9569403357322087 0
    outer loop
      vertex 5.512144515225805 6.769256448645169 0
      vertex 5.812293491784144 6.678207252018059 1.2
      vertex 5.512144515225805 6.769256448645169 1.2
    endloop
  endfacet
  facet normal -0.09801714032956071 -0.9951847266721968 0
    outer loop
      vertex 5.2 6.800000000000001 0
      vertex 5.512144515225805 6.769256448645169 1.2
      vertex 5.2 6.800000000000001 1.2
    endloop
  endfacet
  facet normal -0.47139673682599914 -0.8819212643483543 0
    outer loop
      vertex 5.812293491784144 6.678207252018059 0
      vertex 6.088912372831364 6.530351379684072 1.2
      vertex 5.812293491784144 6.678207252018059 1.2
    endloop
  endfacet
  facet normal -0.6343932841636432 -0.7730104533627388 0
    outer loop
      vertex 6.088912372831364 6.530351379684072 0
      vertex 6.331370849898477 6.331370849898477 1.2
      vertex 6.088912372831364 6.530351379684072 1.2
    endloop
  endfacet
  facet normal -0.8819212643483543 0.47139673682599914 0
    outer loop
      vertex 6.530351379684072 4.311087627168637 0
      vertex 6.530351379684072 4.311087627168637 1.2
      vertex 6.678207252018059 4.587706508215857 0
    endloop
  endfacet
  facet normal -0.9569403357322087 0.290284677254463 0
    outer loop
      vertex 6.678207252018059 4.587706508215857 0
      vertex 6.678207252018059 4.587706508215857 1.2
      vertex 6.769256448645169 4.887855484774195 0
    endloop
  endfacet
  facet normal -0.9951847266721968 0.09801714032956071 0
    outer loop
      vertex 6.769256448645169 4.887855484774195 0
      vertex 6.769256448645169 4.887855484774195 1.2
      vertex 6.800000000000001 5.2 0
    endloop
  endfacet
  facet normal -0.9569403357322087 -0.290284677254463 0
    outer loop
      vertex 6.769256448645169 5.512144515225805 0
      vertex 6.769256448645169 5.512144515225805 1.2
      vertex 6.678207252018059 5.812293491784144 0
    endloop
  endfacet
  facet normal -0.7730104533627388 -0.6343932841636432 -4.8895118168387024e-18
    outer loop
      vertex 6.331370849898477 6.331370849898477 0
      vertex 6.530351379684072 6.088912372831364 0
      vertex 6.530351379684072 6.088912372831364 1.2
    endloop
  endfacet
  facet normal -0.8819212643483543 -0.47139673682599914 0
    outer loop
      vertex 6.678207252018059 5.812293491784144 0
      vertex 6.678207252018059 5.812293491784144 1.2
      vertex 6.530351379684072 6.088912372831364 0
    endloop
  endfacet
  facet normal -0.9951847266721968 -0.09801714032956071 0
    outer loop
      vertex 6.800000000000001 5.2 0
      vertex 6.800000000000001 5.2 1.2
      vertex 6.769256448645169 5.512144515225805 0
    endloop
  endfacet
  facet normal -0.7730104533627374 0.6343932841636448 0
    outer loop
      vertex 6.530351379684072 4.311087627168637 0
      vertex 6.331370849898476 4.068629150101524 1.2
      vertex 6.530351379684072 4.311087627168637 1.2
    endloop
  endfacet
  facet normal -0.8819212643483543 0.47139673682599914 0
    outer loop
      vertex 6.678207252018059 4.587706508215857 0
      vertex 6.530351379684072 4.311087627168637 1.2
      vertex 6.678207252018059 4.587706508215857 1.2
    endloop
  endfacet
  facet normal -0.9569403357322087 0.290284677254463 0
    outer loop
      vertex 6.769256448645169 4.887855484774195 0
      vertex 6.678207252018059 4.587706508215857 1.2
      vertex 6.769256448645169 4.887855484774195 1.2
    endloop
  endfacet
  facet normal -0.9951847266721968 0.09801714032956071 0
    outer loop
      vertex 6.800000000000001 5.2 0
      vertex 6.769256448645169 4.887855484774195 1.2
      vertex 6.800000000000001 5.2 1.2
    endloop
  endfacet
  facet normal -0.9569403357322087 -0.290284677254463 0
    outer loop
      vertex 6.678207252018059 5.812293491784144 0
      vertex 6.769256448645169 5.512144515225805 1.2
      vertex 6.678207252018059 5.812293491784144 1.2
    endloop
  endfacet
  facet normal -0.8819212643483543 -0.47139673682599914 0
    outer loop
      vertex 6.530351379684072 6.088912372831364 0
      vertex 6.678207252018059 5.812293491784144 1.2
      vertex 6.530351379684072 6.088912372831364 1.2
    endloop
  endfacet
  facet normal -0.9951847266721968 -0.09801714032956071 0
    outer loop
      vertex 6.769256448645169 5.512144515225805 0
      vertex 6.800000000000001 5.2 1.2
      vertex 6.769256448645169 5.512144515225805 1.2
    endloop
  endfacet
  facet normal -0.6343932841636432 -0.7730104533627388 0
    outer loop
      vertex 6.331370849898477 6.331370849898477 0
      vertex 6.331370849898477 6.331370849898477 1.2
      vertex 6.088912372831364 6.530351379684072 0
    endloop
  endfacet
  facet normal -0.7730104533627388 -0.6343932841636432 0
    outer loop
      vertex 6.331370849898477 6.331370849898477 0
      vertex 6.530351379684072 6.088912372831364 1.2
      vertex 6.331370849898477 6.331370849898477 1.2
    endloop
  endfacet
  facet normal 0 0 -1
    outer loop
      vertex 37.202981953649264 37.644420960501975 0
      vertex 34.53333333333334 34.53333333333334 0
      vertex 37.05512608131528 37.921039841549195 0
    endloop
  endfacet
  facet normal 0 0 -1
    outer loop
      vertex 37.202981953649264 37.644420960501975 0
      vertex 37.401962483434865 37.401962483434865 0
      vertex 34.53333333333334 34.53333333333334 0
    endloop
  endfacet
  facet normal 0 0 -1
    outer loop
      vertex 37.644420960501975 37.202981953649264 0
      vertex 34.53333333333334 34.53333333333334 0
      vertex 37.401962483434865 37.401962483434865 0
    endloop
  endfacet
  facet normal 0 0 -1
    outer loop
      vertex 37.644420960501975 37.202981953649264 0
      vertex 37.921039841549195 37.05512608131528 0
      vertex 34.53333333333334 34.53333333333334 0
    endloop
  endfacet
  facet normal 0 0 -1
    outer loop
      vertex 37.921039841549195 37.05512608131528 0
      vertex 38.221188818107535 36.96407688468817 0
      vertex 34.53333333333334 34.53333333333334 0
    endloop
  endfacet
  facet normal 0 0 1
    outer loop
      vertex 37.05512608131528 37.921039841549195 1.2
      vertex 36.96407688468817 38.221188818107535 1.2
      vertex 34.53333333333334 34.53333333333334 1.2
    endloop
  endfacet
  facet normal 0 0 1
    outer loop
      vertex 37.202981953649264 37.644420960501975 1.2
      vertex 37.05512608131528 37.921039841549195 1.2
      vertex 34.53333333333334 34.53333333333334 1.2
    endloop
  endfacet
  facet normal 0 0 1
    outer loop
      vertex 37.202981953649264 37.644420960501975 1.2
      vertex 34.53333333333334 34.53333333333334 1.2
      vertex 37.401962483434865 37.401962483434865 1.2
    endloop
  endfacet
  facet normal 0 0 1
    outer loop
      vertex 36.96407688468817 38.221188818107535 1.2
      vertex 36.93333333333334 38.53333333333334 1.2
      vertex 34.53333333333334 34.53333333333334 1.2
    endloop
  endfacet
  facet normal 0 0 1
    outer loop
      vertex 36.93333333333334 38.53333333333334 1.2
      vertex 36.96407688468817 38.84547784855914 1.2
      vertex 34.53333333333334 34.53333333333334 1.2
    endloop
  endfacet
  facet normal 0 0 1
    outer loop
      vertex 37.644420960501975 37.202981953649264 1.2
      vertex 37.401962483434865 37.401962483434865 1.2
      vertex 34.53333333333334 34.53333333333334 1.2
    endloop
  endfacet
  facet normal 0 0 1
    outer loop
      vertex 37.644420960501975 37.202981953649264 1.2
      vertex 34.53333333333334 34.53333333333334 1.2
      vertex 37.921039841549195 37.05512608131528 1.2
    endloop
  endfacet
  facet normal 0 0 1
    outer loop
      vertex 37.921039841549195 37.05512608131528 1.2
      vertex 34.53333333333334 34.53333333333334 1.2
      vertex 38.221188818107535 36.96407688468817 1.2
    endloop
  endfacet
  facet normal 0 0 1
    outer loop
      vertex 38.221188818107535 36.96407688468817 1.2
      vertex 34.53333333333334 34.53333333333334 1.2
      vertex 38.53333333333334 36.93333333333334 1.2
    endloop
  endfacet
  facet normal 0 0 1
    outer loop
      vertex 38.53333333333334 36.93333333333334 1.2
      vertex 34.53333333333334 34.53333333333334 1.2
      vertex 38.84547784855914 36.96407688468817 1.2
    endloop
  endfacet
  facet normal 0 0 -1
    outer loop
      vertex 37.05512608131528 37.921039841549195 0
      vertex 34.53333333333334 34.53333333333334 0
      vertex 34.53333333333334 42.53333333333334 0
    endloop
  endfacet
  facet normal 0 0 1
    outer loop
      vertex 37.05512608131528 39.14562682511748 1.2
      vertex 34.53333333333334 42.53333333333334 1.2
      vertex 34.53333333333334 34.53333333333334 1.2
    endloop
  endfacet
  facet normal 0 0 -1
    outer loop
      vertex 37.05512608131528 37.921039841549195 0
      vertex 34.53333333333334 42.53333333333334 0
      vertex 36.96407688468817 38.221188818107535 0
    endloop
  endfacet
  facet normal 0 0 1
    outer loop
      vertex 36.96407688468817 38.84547784855914 1.2
      vertex 37.05512608131528 39.14562682511748 1.2
      vertex 34.53333333333334 34.53333333333334 1.2
    endloop
  endfacet
  facet normal 0 0 -1
    outer loop
      vertex 36.96407688468817 38.221188818107535 0
      vertex 34.53333333333334 42.53333333333334 0
      vertex 36.93333333333334 38.53333333333334 0
    endloop
  endfacet
  facet normal 0 0 -1
    outer loop
      vertex 36.93333333333334 38.53333333333334 0
      vertex 34.53333333333334 42.53333333333334 0
      vertex 36.96407688468817 38.84547784855914 0
    endloop
  endfacet
  facet normal 0 0 -1
    outer loop
      vertex 36.96407688468817 38.84547784855914 0
      vertex 34.53333333333334 42.53333333333334 0
      vertex 37.05512608131528 39.14562682511748 0
    endloop
  endfacet
  facet normal 0 0 -1
    outer loop
      vertex 37.05512608131528 39.14562682511748 0
      vertex 34.53333333333334 42.53333333333334 0
      vertex 37.202981953649264 39.4222457061647 0
    endloop
  endfacet
  facet normal 0 0 -1
    outer loop
      vertex 37.202981953649264 39.4222457061647 0
      vertex 34.53333333333334 42.53333333333334 0
      vertex 37.401962483434865 39.66470418323181 0
    endloop
  endfacet
  facet normal 0 0 -1
    outer loop
      vertex 37.401962483434865 39.66470418323181 0
      vertex 34.53333333333334 42.53333333333334 0
      vertex 37.644420960501975 39.86368471301741 0
    endloop
  endfacet
  facet normal 0 0 -1
    outer loop
      vertex 37.644420960501975 39.86368471301741 0
      vertex 34.53333333333334 42.53333333333334 0
      vertex 37.921039841549195 40.0115405853514 0
    endloop
  endfacet
  facet normal 0 0 -1
    outer loop
      vertex 37.921039841549195 40.0115405853514 0
      vertex 34.53333333333334 42.53333333333334 0
      vertex 38.221188818107535 40.10258978197851 0
    endloop
  endfacet
  facet normal 0 0 -1
    outer loop
      vertex 38.221188818107535 40.10258978197851 0
      vertex 34.53333333333334 42.53333333333334 0
      vertex 38.53333333333334 40.13333333333334 0
    endloop
  endfacet
  facet normal 0 0 -1
    outer loop
      vertex 38.53333333333334 40.13333333333334 0
      vertex 34.53333333333334 42.53333333333334 0
      vertex 38.84547784855914 40.10258978197851 0
    endloop
  endfacet
  facet normal 0 0 1
    outer loop
      vertex 37.05512608131528 39.14562682511748 1.2
      vertex 37.202981953649264 39.4222457061647 1.2
      vertex 34.53333333333334 42.53333333333334 1.2
    endloop
  endfacet
  facet normal 0 0 1
    outer loop
      vertex 37.202981953649264 39.4222457061647 1.2
      vertex 37.401962483434865 39.66470418323181 1.2
      vertex 34.53333333333334 42.53333333333334 1.2
    endloop
  endfacet
  facet normal 0 0 1
    outer loop
      vertex 37.401962483434865 39.66470418323181 1.2
      vertex 37.644420960501975 39.86368471301741 1.2
      vertex 34.53333333333334 42.53333333333334 1.2
    endloop
  endfacet
  facet normal 0 0 1
    outer loop
      vertex 37.644420960501975 39.86368471301741 1.2
      vertex 37.921039841549195 40.0115405853514 1.2
      vertex 34.53333333333334 42.53333333333334 1.2
    endloop
  endfacet
  facet normal 0 0 1
    outer loop
      vertex 37.921039841549195 40.0115405853514 1.2
      vertex 38.221188818107535 40.10258978197851 1.2
      vertex 34.53333333333334 42.53333333333334 1.2
    endloop
  endfacet
  facet normal 0 0 -1
    outer loop
      vertex 38.221188818107535 36.96407688468817 0
      vertex 42.53333333333334 34.53333333333334 0
      vertex 34.53333333333334 34.53333333333334 0
    endloop
  endfacet
  facet normal 0 0 1
    outer loop
      vertex 38.84547784855914 36.96407688468817 1.2
      vertex 34.53333333333334 34.53333333333334 1.2
      vertex 42.53333333333334 34.53333333333334 1.2
    endloop
  endfacet
  facet normal 0 0 -1
    outer loop
      vertex 38.221188818107535 36.96407688468817 0
      vertex 38.53333333333334 36.93333333333334 0
      vertex 42.53333333333334 34.53333333333334 0
    endloop
  endfacet
  facet normal 0 0 -1
    outer loop
      vertex 38.53333333333334 36.93333333333334 0
      vertex 38.84547784855914 36.96407688468817 0
      vertex 42.53333333333334 34.53333333333334 0
    endloop
  endfacet
  facet normal 0 0 -1
    outer loop
      vertex 38.84547784855914 36.96407688468817 0
      vertex 39.14562682511748 37.05512608131528 0
      vertex 42.53333333333334 34.53333333333334 0
    endloop
  endfacet
  facet normal 0 0 -1
    outer loop
      vertex 39.14562682511748 37.05512608131528 0
      vertex 39.4222457061647 37.202981953649264 0
      vertex 42.53333333333334 34.53333333333334 0
    endloop
  endfacet
  facet normal 0 0 -1
    outer loop
      vertex 39.4222457061647 37.202981953649264 0
      vertex 39.66470418323181 37.401962483434865 0
      vertex 42.53333333333334 34.53333333333334 0
    endloop
  endfacet
  facet normal 0 0 -1
    outer loop
      vertex 39.66470418323181 37.401962483434865 0
      vertex 39.86368471301741 37.644420960501975 0
      vertex 42.53333333333334 34.53333333333334 0
    endloop
  endfacet
  facet normal 0 0 -1
    outer loop
      vertex 39.86368471301741 37.644420960501975 0
      vertex 40.0115405853514 37.921039841549195 0
      vertex 42.53333333333334 34.53333333333334 0
    endloop
  endfacet
  facet normal 0 0 -1
    outer loop
      vertex 40.0115405853514 37.921039841549195 0
      vertex 40.10258978197851 38.221188818107535 0
      vertex 42.53333333333334 34.53333333333334 0
    endloop
  endfacet
  facet normal 0 0 -1
    outer loop
      vertex 40.10258978197851 38.221188818107535 0
      vertex 40.13333333333334 38.53333333333334 0
      vertex 42.53333333333334 34.53333333333334 0
    endloop
  endfacet
  facet normal 0 0 -1
    outer loop
      vertex 40.13333333333334 38.53333333333334 0
      vertex 40.10258978197851 38.84547784855914 0
      vertex 42.53333333333334 34.53333333333334 0
    endloop
  endfacet
  facet normal 0 0 1
    outer loop
      vertex 38.84547784855914 36.96407688468817 1.2
      vertex 42.53333333333334 34.53333333333334 1.2
      vertex 39.14562682511748 37.05512608131528 1.2
    endloop
  endfacet
  facet normal 0 0 1
    outer loop
      vertex 39.14562682511748 37.05512608131528 1.2
      vertex 42.53333333333334 34.53333333333334 1.2
      vertex 39.4222457061647 37.202981953649264 1.2
    endloop
  endfacet
  facet normal 0 0 1
    outer loop
      vertex 39.4222457061647 37.202981953649264 1.2
      vertex 42.53333333333334 34.53333333333334 1.2
      vertex 39.66470418323181 37.401962483434865 1.2
    endloop
  endfacet
  facet normal 0 0 1
    outer loop
      vertex 39.66470418323181 37.401962483434865 1.2
      vertex 42.53333333333334 34.53333333333334 1.2
      vertex 39.86368471301741 37.644420960501975 1.2
    endloop
  endfacet
  facet normal 0 0 1
    outer loop
      vertex 39.86368471301741 37.644420960501975 1.2
      vertex 42.53333333333334 34.53333333333334 1.2
      vertex 40.0115405853514 37.921039841549195 1.2
    endloop
  endfacet
  facet normal 0 0 -1
    outer loop
      vertex 40.10258978197851 38.84547784855914 0
      vertex 40.0115405853514 39.14562682511748 0
      vertex 42.53333333333334 34.53333333333334 0
    endloop
  endfacet
  facet normal 0 0 1
    outer loop
      vertex 40.0115405853514 37.921039841549195 1.2
      vertex 42.53333333333334 42.53333333333334 1.2
      vertex 40.10258978197851 38.221188818107535 1.2
    endloop
  endfacet
  facet normal 0 0 -1
    outer loop
      vertex 38.84547784855914 40.10258978197851 0
      vertex 42.53333333333334 42.53333333333334 0
      vertex 39.14562682511748 40.0115405853514 0
    endloop
  endfacet
  facet normal 0 0 -1
    outer loop
      vertex 39.4222457061647 39.86368471301741 0
      vertex 39.14562682511748 40.0115405853514 0
      vertex 42.53333333333334 42.53333333333334 0
    endloop
  endfacet
  facet normal 0 0 -1
    outer loop
      vertex 39.4222457061647 39.86368471301741 0
      vertex 42.53333333333334 42.53333333333334 0
      vertex 39.66470418323181 39.66470418323181 0
    endloop
  endfacet
  facet normal 0 0 -1
    outer loop
      vertex 39.86368471301741 39.4222457061647 0
      vertex 39.66470418323181 39.66470418323181 0
      vertex 42.53333333333334 42.53333333333334 0
    endloop
  endfacet
  facet normal 0 0 -1
    outer loop
      vertex 39.86368471301741 39.4222457061647 0
      vertex 42.53333333333334 42.53333333333334 0
      vertex 40.0115405853514 39.14562682511748 0
    endloop
  endfacet
  facet normal 0 0 1
    outer loop
      vertex 38.221188818107535 40.10258978197851 1.2
      vertex 38.53333333333334 40.13333333333334 1.2
      vertex 42.53333333333334 42.53333333333334 1.2
    endloop
  endfacet
  facet normal 0 0 1
    outer loop
      vertex 38.53333333333334 40.13333333333334 1.2
      vertex 38.84547784855914 40.10258978197851 1.2
      vertex 42.53333333333334 42.53333333333334 1.2
    endloop
  endfacet
  facet normal 0 0 1
    outer loop
      vertex 38.84547784855914 40.10258978197851 1.2
      vertex 39.14562682511748 40.0115405853514 1.2
      vertex 42.53333333333334 42.53333333333334 1.2
    endloop
  endfacet
  facet normal 0 0 1
    outer loop
      vertex 39.4222457061647 39.86368471301741 1.2
      vertex 42.53333333333334 42.53333333333334 1.2
      vertex 39.14562682511748 40.0115405853514 1.2
    endloop
  endfacet
  facet normal 0 0 1
    outer loop
      vertex 39.4222457061647 39.86368471301741 1.2
      vertex 39.66470418323181 39.66470418323181 1.2
      vertex 42.53333333333334 42.53333333333334 1.2
    endloop
  endfacet
  facet normal 0 0 1
    outer loop
      vertex 40.10258978197851 38.221188818107535 1.2
      vertex 42.53333333333334 42.53333333333334 1.2
      vertex 40.13333333333334 38.53333333333334 1.2
    endloop
  endfacet
  facet normal 0 0 1
    outer loop
      vertex 40.13333333333334 38.53333333333334 1.2
      vertex 42.53333333333334 42.53333333333334 1.2
      vertex 40.10258978197851 38.84547784855914 1.2
    endloop
  endfacet
  facet normal 0 0 1
    outer loop
      vertex 40.10258978197851 38.84547784855914 1.2
      vertex 42.53333333333334 42.53333333333334 1.2
      vertex 40.0115405853514 39.14562682511748 1.2
    endloop
  endfacet
  facet normal 0 0 1
    outer loop
      vertex 39.86368471301741 39.4222457061647 1.2
      vertex 42.53333333333334 42.53333333333334 1.2
      vertex 39.66470418323181 39.66470418323181 1.2
    endloop
  endfacet
  facet normal 0 0 1
    outer loop
      vertex 39.86368471301741 39.4222457061647 1.2
      vertex 40.0115405853514 39.14562682511748 1.2
      vertex 42.53333333333334 42.53333333333334 1.2
    endloop
  endfacet
  facet normal 0 1 0
    outer loop
      vertex 42.53333333333334 42.53333333333334 0
      vertex 34.53333333333334 42.53333333333334 0
      vertex 34.53333333333334 42.53333333333334 1.2
    endloop
  endfacet
  facet normal 0 0 -1
    outer loop
      vertex 38.84547784855914 40.10258978197851 0
      vertex 34.53333333333334 42.53333333333334 0
      vertex 42.53333333333334 42.53333333333334 0
    endloop
  endfacet
  facet normal 0 0 1
    outer loop
      vertex 38.221188818107535 40.10258978197851 1.2
      vertex 42.53333333333334 42.53333333333334 1.2
      vertex 34.53333333333334 42.53333333333334 1.2
    endloop
  endfacet
  facet normal 0 1 0
    outer loop
      vertex 42.53333333333334 42.53333333333334 0
      vertex 34.53333333333334 42.53333333333334 1.2
      vertex 42.53333333333334 42.53333333333334 1.2
    endloop
  endfacet
  facet normal 1 0 0
    outer loop
      vertex 42.53333333333334 42.53333333333334 0
      vertex 42.53333333333334 34.53333333333334 1.2
      vertex 42.53333333333334 34.53333333333334 0
    endloop
  endfacet
  facet normal 0 0 -1
    outer loop
      vertex 40.0115405853514 39.14562682511748 0
      vertex 42.53333333333334 42.53333333333334 0
      vertex 42.53333333333334 34.53333333333334 0
    endloop
  endfacet
  facet normal 0 0 1
    outer loop
      vertex 40.0115405853514 37.921039841549195 1.2
      vertex 42.53333333333334 34.53333333333334 1.2
      vertex 42.53333333333334 42.53333333333334 1.2
    endloop
  endfacet
  facet normal 1 0 0
    outer loop
      vertex 42.53333333333334 42.53333333333334 0
      vertex 42.53333333333334 42.53333333333334 1.2
      vertex 42.53333333333334 34.53333333333334 1.2
    endloop
  endfacet
  facet normal 0.6343932841636575 0.7730104533627272 -1.1947793851333648e-18
    outer loop
      vertex 37.644420960501975 37.202981953649264 0
      vertex 37.401962483434865 37.401962483434865 0
      vertex 37.401962483434865 37.401962483434865 1.2
    endloop
  endfacet
  facet normal 0.7730104533627272 0.6343932841636575 0
    outer loop
      vertex 37.401962483434865 37.401962483434865 0
      vertex 37.202981953649264 37.644420960501975 1.2
      vertex 37.401962483434865 37.401962483434865 1.2
    endloop
  endfacet
  facet normal 0.9951847266721968 0.09801714032956128 -6.784918052671307e-19
    outer loop
      vertex 36.96407688468817 38.221188818107535 0
      vertex 36.93333333333334 38.53333333333334 0
      vertex 36.93333333333334 38.53333333333334 1.2
    endloop
  endfacet
  facet normal 0.8819212643483578 0.47139673682599254 7.030724946766531e-18
    outer loop
      vertex 37.202981953649264 37.644420960501975 0
      vertex 37.05512608131528 37.921039841549195 0
      vertex 37.05512608131528 37.921039841549195 1.2
    endloop
  endfacet
  facet normal 0.7730104533627272 0.6343932841636575 0
    outer loop
      vertex 37.202981953649264 37.644420960501975 0
      vertex 37.202981953649264 37.644420960501975 1.2
      vertex 37.401962483434865 37.401962483434865 0
    endloop
  endfacet
  facet normal 0.9569403357322084 0.290284677254464 -2.384816883882562e-18
    outer loop
      vertex 37.05512608131528 37.921039841549195 0
      vertex 36.96407688468817 38.221188818107535 0
      vertex 36.96407688468817 38.221188818107535 1.2
    endloop
  endfacet
  facet normal 0.9951847266721968 -0.09801714032956128 6.784918052671307e-19
    outer loop
      vertex 36.93333333333334 38.53333333333334 0
      vertex 36.96407688468817 38.84547784855914 0
      vertex 36.96407688468817 38.84547784855914 1.2
    endloop
  endfacet
  facet normal 0.9569403357322084 -0.290284677254464 2.384816883882562e-18
    outer loop
      vertex 36.96407688468817 38.84547784855914 0
      vertex 37.05512608131528 39.14562682511748 0
      vertex 37.05512608131528 39.14562682511748 1.2
    endloop
  endfacet
  facet normal 0.8819212643483578 -0.47139673682599254 -7.030724946766531e-18
    outer loop
      vertex 37.05512608131528 39.14562682511748 0
      vertex 37.202981953649264 39.4222457061647 0
      vertex 37.202981953649264 39.4222457061647 1.2
    endloop
  endfacet
  facet normal 0.9951847266721968 0.09801714032956128 0
    outer loop
      vertex 36.96407688468817 38.221188818107535 0
      vertex 36.93333333333334 38.53333333333334 1.2
      vertex 36.96407688468817 38.221188818107535 1.2
    endloop
  endfacet
  facet normal 0.8819212643483578 0.47139673682599254 0
    outer loop
      vertex 37.202981953649264 37.644420960501975 0
      vertex 37.05512608131528 37.921039841549195 1.2
      vertex 37.202981953649264 37.644420960501975 1.2
    endloop
  endfacet
  facet normal 0.9569403357322084 0.290284677254464 0
    outer loop
      vertex 37.05512608131528 37.921039841549195 0
      vertex 36.96407688468817 38.221188818107535 1.2
      vertex 37.05512608131528 37.921039841549195 1.2
    endloop
  endfacet
  facet normal 0.9951847266721968 -0.09801714032956128 0
    outer loop
      vertex 36.93333333333334 38.53333333333334 0
      vertex 36.96407688468817 38.84547784855914 1.2
      vertex 36.93333333333334 38.53333333333334 1.2
    endloop
  endfacet
  facet normal 0.9569403357322084 -0.290284677254464 0
    outer loop
      vertex 36.96407688468817 38.84547784855914 0
      vertex 37.05512608131528 39.14562682511748 1.2
      vertex 36.96407688468817 38.84547784855914 1.2
    endloop
  endfacet
  facet normal 0.8819212643483578 -0.47139673682599254 0
    outer loop
      vertex 37.05512608131528 39.14562682511748 0
      vertex 37.202981953649264 39.4222457061647 1.2
      vertex 37.05512608131528 39.14562682511748 1.2
    endloop
  endfacet
  facet normal 0.7730104533627272 -0.6343932841636575 0
    outer loop
      vertex 37.202981953649264 39.4222457061647 0
      vertex 37.401962483434865 39.66470418323181 1.2
      vertex 37.202981953649264 39.4222457061647 1.2
    endloop
  endfacet
  facet normal 0.7730104533627272 -0.6343932841636575 1.1947793851333648e-18
    outer loop
      vertex 37.202981953649264 39.4222457061647 0
      vertex 37.401962483434865 39.66470418323181 0
      vertex 37.401962483434865 39.66470418323181 1.2
    endloop
  endfacet
  facet normal 0.6343932841636575 -0.7730104533627272 0
    outer loop
      vertex 37.401962483434865 39.66470418323181 0
      vertex 37.644420960501975 39.86368471301741 1.2
      vertex 37.401962483434865 39.66470418323181 1.2
    endloop
  endfacet
  facet normal 0.47139673682599254 0.8819212643483578 0
    outer loop
      vertex 37.644420960501975 37.202981953649264 0
      vertex 37.644420960501975 37.202981953649264 1.2
      vertex 37.921039841549195 37.05512608131528 0
    endloop
  endfacet
  facet normal 0.09801714032956128 0.9951847266721968 0
    outer loop
      vertex 38.221188818107535 36.96407688468817 0
      vertex 38.221188818107535 36.96407688468817 1.2
      vertex 38.53333333333334 36.93333333333334 0
    endloop
  endfacet
  facet normal 0.290284677254464 0.9569403357322084 0
    outer loop
      vertex 37.921039841549195 37.05512608131528 0
      vertex 37.921039841549195 37.05512608131528 1.2
      vertex 38.221188818107535 36.96407688468817 0
    endloop
  endfacet
  facet normal -0.09801714032956128 0.9951847266721968 0
    outer loop
      vertex 38.53333333333334 36.93333333333334 0
      vertex 38.53333333333334 36.93333333333334 1.2
      vertex 38.84547784855914 36.96407688468817 0
    endloop
  endfacet
  facet normal -0.290284677254464 0.9569403357322084 0
    outer loop
      vertex 38.84547784855914 36.96407688468817 0
      vertex 38.84547784855914 36.96407688468817 1.2
      vertex 39.14562682511748 37.05512608131528 0
    endloop
  endfacet
  facet normal -0.47139673682599254 0.8819212643483578 0
    outer loop
      vertex 39.14562682511748 37.05512608131528 0
      vertex 39.14562682511748 37.05512608131528 1.2
      vertex 39.4222457061647 37.202981953649264 0
    endloop
  endfacet
  facet normal -0.6343932841636575 0.7730104533627272 0
    outer loop
      vertex 39.4222457061647 37.202981953649264 0
      vertex 39.4222457061647 37.202981953649264 1.2
      vertex 39.66470418323181 37.401962483434865 0
    endloop
  endfacet
  facet normal 0.6343932841636575 0.7730104533627272 0
    outer loop
      vertex 37.644420960501975 37.202981953649264 0
      vertex 37.401962483434865 37.401962483434865 1.2
      vertex 37.644420960501975 37.202981953649264 1.2
    endloop
  endfacet
  facet normal 0.47139673682599254 0.8819212643483578 0
    outer loop
      vertex 37.921039841549195 37.05512608131528 0
      vertex 37.644420960501975 37.202981953649264 1.2
      vertex 37.921039841549195 37.05512608131528 1.2
    endloop
  endfacet
  facet normal 0.09801714032956128 0.9951847266721968 0
    outer loop
      vertex 38.53333333333334 36.93333333333334 0
      vertex 38.221188818107535 36.96407688468817 1.2
      vertex 38.53333333333334 36.93333333333334 1.2
    endloop
  endfacet
  facet normal 0.290284677254464 0.9569403357322084 0
    outer loop
      vertex 38.221188818107535 36.96407688468817 0
      vertex 37.921039841549195 37.05512608131528 1.2
      vertex 38.221188818107535 36.96407688468817 1.2
    endloop
  endfacet
  facet normal -0.09801714032956128 0.9951847266721968 0
    outer loop
      vertex 38.84547784855914 36.96407688468817 0
      vertex 38.53333333333334 36.93333333333334 1.2
      vertex 38.84547784855914 36.96407688468817 1.2
    endloop
  endfacet
  facet normal -0.290284677254464 0.9569403357322084 0
    outer loop
      vertex 39.14562682511748 37.05512608131528 0
      vertex 38.84547784855914 36.96407688468817 1.2
      vertex 39.14562682511748 37.05512608131528 1.2
    endloop
  endfacet
  facet normal -0.47139673682599254 0.8819212643483578 0
    outer loop
      vertex 39.4222457061647 37.202981953649264 0
      vertex 39.14562682511748 37.05512608131528 1.2
      vertex 39.4222457061647 37.202981953649264 1.2
    endloop
  endfacet
  facet normal -0.7730104533627272 0.6343932841636575 0
    outer loop
      vertex 39.66470418323181 37.401962483434865 0
      vertex 39.66470418323181 37.401962483434865 1.2
      vertex 39.86368471301741 37.644420960501975 0
    endloop
  endfacet
  facet normal -0.6343932841636575 0.7730104533627272 0
    outer loop
      vertex 39.66470418323181 37.401962483434865 0
      vertex 39.4222457061647 37.202981953649264 1.2
      vertex 39.66470418323181 37.401962483434865 1.2
    endloop
  endfacet
  facet normal 0.6343932841636575 -0.7730104533627272 1.1947793851333648e-18
    outer loop
      vertex 37.401962483434865 39.66470418323181 0
      vertex 37.644420960501975 39.86368471301741 0
      vertex 37.644420960501975 39.86368471301741 1.2
    endloop
  endfacet
  facet normal 0.47139673682599254 -0.8819212643483578 -7.030724946766531e-18
    outer loop
      vertex 37.644420960501975 39.86368471301741 0
      vertex 37.921039841549195 40.0115405853514 0
      vertex 37.921039841549195 40.0115405853514 1.2
    endloop
  endfacet
  facet normal 0.290284677254464 -0.9569403357322084 2.384816883882562e-18
    outer loop
      vertex 37.921039841549195 40.0115405853514 0
      vertex 38.221188818107535 40.10258978197851 0
      vertex 38.221188818107535 40.10258978197851 1.2
    endloop
  endfacet
  facet normal 0.09801714032956128 -0.9951847266721968 6.784918052671307e-19
    outer loop
      vertex 38.221188818107535 40.10258978197851 0
      vertex 38.53333333333334 40.13333333333334 0
      vertex 38.53333333333334 40.13333333333334 1.2
    endloop
  endfacet
  facet normal -0.290284677254464 -0.9569403357322084 -2.384816883882562e-18
    outer loop
      vertex 38.84547784855914 40.10258978197851 0
      vertex 39.14562682511748 40.0115405853514 0
      vertex 39.14562682511748 40.0115405853514 1.2
    endloop
  endfacet
  facet normal -0.09801714032956128 -0.9951847266721968 -6.784918052671307e-19
    outer loop
      vertex 38.53333333333334 40.13333333333334 0
      vertex 38.84547784855914 40.10258978197851 0
      vertex 38.84547784855914 40.10258978197851 1.2
    endloop
  endfacet
  facet normal -0.47139673682599254 -0.8819212643483578 0
    outer loop
      vertex 39.4222457061647 39.86368471301741 0
      vertex 39.4222457061647 39.86368471301741 1.2
      vertex 39.14562682511748 40.0115405853514 0
    endloop
  endfacet
  facet normal 0.47139673682599254 -0.8819212643483578 0
    outer loop
      vertex 37.644420960501975 39.86368471301741 0
      vertex 37.921039841549195 40.0115405853514 1.2
      vertex 37.644420960501975 39.86368471301741 1.2
    endloop
  endfacet
  facet normal 0.290284677254464 -0.9569403357322084 0
    outer loop
      vertex 37.921039841549195 40.0115405853514 0
      vertex 38.221188818107535 40.10258978197851 1.2
      vertex 37.921039841549195 40.0115405853514 1.2
    endloop
  endfacet
  facet normal 0.09801714032956128 -0.9951847266721968 0
    outer loop
      vertex 38.221188818107535 40.10258978197851 0
      vertex 38.53333333333334 40.13333333333334 1.2
      vertex 38.221188818107535 40.10258978197851 1.2
    endloop
  endfacet
  facet normal -0.290284677254464 -0.9569403357322084 0
    outer loop
      vertex 38.84547784855914 40.10258978197851 0
      vertex 39.14562682511748 40.0115405853514 1.2
      vertex 38.84547784855914 40.10258978197851 1.2
    endloop
  endfacet
  facet normal -0.09801714032956128 -0.9951847266721968 0
    outer loop
      vertex 38.53333333333334 40.13333333333334 0
      vertex 38.84547784855914 40.10258978197851 1.2
      vertex 38.53333333333334 40.13333333333334 1.2
    endloop
  endfacet
  facet normal -0.47139673682599254 -0.8819212643483578 0
    outer loop
      vertex 39.14562682511748 40.0115405853514 0
      vertex 39.4222457061647 39.86368471301741 1.2
      vertex 39.14562682511748 40.0115405853514 1.2
    endloop
  endfacet
  facet normal -0.6343932841636575 -0.7730104533627272 0
    outer loop
      vertex 39.4222457061647 39.86368471301741 0
      vertex 39.66470418323181 39.66470418323181 1.2
      vertex 39.4222457061647 39.86368471301741 1.2
    endloop
  endfacet
  facet normal -0.8819212643483578 0.47139673682599254 0
    outer loop
      vertex 39.86368471301741 37.644420960501975 0
      vertex 39.86368471301741 37.644420960501975 1.2
      vertex 40.0115405853514 37.921039841549195 0
    endloop
  endfacet
  facet normal -0.9569403357322084 0.290284677254464 0
    outer loop
      vertex 40.0115405853514 37.921039841549195 0
      vertex 40.0115405853514 37.921039841549195 1.2
      vertex 40.10258978197851 38.221188818107535 0
    endloop
  endfacet
  facet normal -0.9951847266721968 0.09801714032956128 0
    outer loop
      vertex 40.10258978197851 38.221188818107535 0
      vertex 40.10258978197851 38.221188818107535 1.2
      vertex 40.13333333333334 38.53333333333334 0
    endloop
  endfacet
  facet normal -0.9569403357322084 -0.290284677254464 0
    outer loop
      vertex 40.10258978197851 38.84547784855914 0
      vertex 40.10258978197851 38.84547784855914 1.2
      vertex 40.0115405853514 39.14562682511748 0
    endloop
  endfacet
  facet normal -0.7730104533627272 -0.6343932841636575 0
    outer loop
      vertex 39.86368471301741 39.4222457061647 0
      vertex 39.86368471301741 39.4222457061647 1.2
      vertex 39.66470418323181 39.66470418323181 0
    endloop
  endfacet
  facet normal -0.8819212643483578 -0.47139673682599254 7.030724946766531e-18
    outer loop
      vertex 39.86368471301741 39.4222457061647 0
      vertex 40.0115405853514 39.14562682511748 0
      vertex 40.0115405853514 39.14562682511748 1.2
    endloop
  endfacet
  facet normal -0.9951847266721968 -0.09801714032956128 0
    outer loop
      vertex 40.13333333333334 38.53333333333334 0
      vertex 40.13333333333334 38.53333333333334 1.2
      vertex 40.10258978197851 38.84547784855914 0
    endloop
  endfacet
  facet normal -0.7730104533627272 0.6343932841636575 0
    outer loop
      vertex 39.86368471301741 37.644420960501975 0
      vertex 39.66470418323181 37.401962483434865 1.2
      vertex 39.86368471301741 37.644420960501975 1.2
    endloop
  endfacet
  facet normal -0.8819212643483578 0.47139673682599254 0
    outer loop
      vertex 40.0115405853514 37.921039841549195 0
      vertex 39.86368471301741 37.644420960501975 1.2
      vertex 40.0115405853514 37.921039841549195 1.2
    endloop
  endfacet
  facet normal -0.9569403357322084 0.290284677254464 0
    outer loop
      vertex 40.10258978197851 38.221188818107535 0
      vertex 40.0115405853514 37.921039841549195 1.2
      vertex 40.10258978197851 38.221188818107535 1.2
    endloop
  endfacet
  facet normal -0.9951847266721968 0.09801714032956128 0
    outer loop
      vertex 40.13333333333334 38.53333333333334 0
      vertex 40.10258978197851 38.221188818107535 1.2
      vertex 40.13333333333334 38.53333333333334 1.2
    endloop
  endfacet
  facet normal -0.9569403357322084 -0.290284677254464 0
    outer loop
      vertex 40.0115405853514 39.14562682511748 0
      vertex 40.10258978197851 38.84547784855914 1.2
      vertex 40.0115405853514 39.14562682511748 1.2
    endloop
  endfacet
  facet normal -0.8819212643483578 -0.47139673682599254 0
    outer loop
      vertex 39.86368471301741 39.4222457061647 0
      vertex 40.0115405853514 39.14562682511748 1.2
      vertex 39.86368471301741 39.4222457061647 1.2
    endloop
  endfacet
  facet normal -0.9951847266721968 -0.09801714032956128 0
    outer loop
      vertex 40.10258978197851 38.84547784855914 0
      vertex 40.13333333333334 38.53333333333334 1.2
      vertex 40.10258978197851 38.84547784855914 1.2
    endloop
  endfacet
  facet normal -0.6343932841636575 -0.7730104533627272 -1.1947793851333648e-18
    outer loop
      vertex 39.4222457061647 39.86368471301741 0
      vertex 39.66470418323181 39.66470418323181 0
      vertex 39.66470418323181 39.66470418323181 1.2
    endloop
  endfacet
  facet normal -0.7730104533627272 -0.6343932841636575 0
    outer loop
      vertex 39.66470418323181 39.66470418323181 0
      vertex 39.86368471301741 39.4222457061647 1.2
      vertex 39.66470418323181 39.66470418323181 1.2
    endloop
  endfacet
endsolid OpenSCAD_Model
